<?xml version="1.0" encoding="UTF-8" standalone="no"?>
<!-- Created with Inkscape (http://www.inkscape.org/) -->

<svg
   xmlns:dc="http://purl.org/dc/elements/1.1/"
   xmlns:cc="http://creativecommons.org/ns#"
   xmlns:rdf="http://www.w3.org/1999/02/22-rdf-syntax-ns#"
   xmlns:svg="http://www.w3.org/2000/svg"
   xmlns="http://www.w3.org/2000/svg"
   xmlns:xlink="http://www.w3.org/1999/xlink"
   xmlns:sodipodi="http://sodipodi.sourceforge.net/DTD/sodipodi-0.dtd"
   xmlns:inkscape="http://www.inkscape.org/namespaces/inkscape"
   width="205.62758"
   height="162.76541"
   id="svg2"
   version="1.1"
   inkscape:version="0.48.3.1 r9886"
   sodipodi:docname="wool-logo.svg">
  <defs
     id="defs4">
    <radialGradient
       inkscape:collect="always"
       xlink:href="#linearGradient12858-2"
       id="radialGradient4062"
       gradientUnits="userSpaceOnUse"
       gradientTransform="matrix(1.4027838,0.50154457,-0.38798123,1.0851554,251.61094,-756.77766)"
       cx="160.67589"
       cy="729.44775"
       fx="160.67589"
       fy="729.44775"
       r="102.81928" />
    <linearGradient
       id="linearGradient12858-2">
      <stop
         style="stop-color:#c8c8c8;stop-opacity:1;"
         offset="0"
         id="stop12860-7" />
      <stop
         style="stop-color:#a5a5a5;stop-opacity:1;"
         offset="1"
         id="stop12862-8" />
    </linearGradient>
    <radialGradient
       inkscape:collect="always"
       xlink:href="#linearGradient12858-2"
       id="radialGradient3538-8"
       gradientUnits="userSpaceOnUse"
       gradientTransform="matrix(1.4027838,0.50154457,-0.38798123,1.0851554,730.65602,-794.65568)"
       cx="160.67589"
       cy="729.44775"
       fx="160.67589"
       fy="729.44775"
       r="102.81928" />
  </defs>
  <sodipodi:namedview
     id="base"
     pagecolor="#ffffff"
     bordercolor="#666666"
     borderopacity="1.0"
     inkscape:pageopacity="0.0"
     inkscape:pageshadow="2"
     inkscape:zoom="2.8"
     inkscape:cx="205.78563"
     inkscape:cy="88.548217"
     inkscape:document-units="px"
     inkscape:current-layer="layer1"
     showgrid="false"
     fit-margin-top="0"
     fit-margin-left="0"
     fit-margin-right="0"
     fit-margin-bottom="0"
     inkscape:window-width="1600"
     inkscape:window-height="876"
     inkscape:window-x="0"
     inkscape:window-y="24"
     inkscape:window-maximized="1" />
  <metadata
     id="metadata7">
    <rdf:RDF>
      <cc:Work
         rdf:about="">
        <dc:format>image/svg+xml</dc:format>
        <dc:type
           rdf:resource="http://purl.org/dc/dcmitype/StillImage" />
        <dc:title />
      </cc:Work>
    </rdf:RDF>
  </metadata>
  <g
     inkscape:label="Layer 1"
     inkscape:groupmode="layer"
     id="layer1"
     transform="translate(-391.58577,-329.88989)">
    <g
       transform="translate(265.82813,270.33898)"
       id="layer1-6"
       inkscape:label="Layer 1">
      <path
         style="color:#000000;fill:url(#radialGradient4062);fill-opacity:1;fill-rule:nonzero;stroke:none;stroke-width:3.48488545;marker:none;visibility:visible;display:inline;overflow:visible;enable-background:accumulate"
         d="m 185.88279,59.551203 c -2.41678,0.0201 -4.78637,0.19614 -7.03125,0.5 -0.74829,0.10129 -1.49612,0.21061 -2.21875,0.34375 -0.6354,0.11667 -1.26208,0.23398 -1.875,0.375 -0.0828,0.0191 -0.16768,0.0429 -0.25,0.0625 -0.42663,0.10108 -0.83542,0.2306 -1.25,0.34375 -0.47375,0.1293 -0.94927,0.26104 -1.40625,0.40625 -0.11123,0.0353 -0.23355,0.0575 -0.34375,0.0937 -0.31887,0.10581 -0.62754,0.23 -0.9375,0.34375 -0.58211,0.21363 -1.1701,0.44574 -1.71875,0.6875 -0.0942,0.0415 -0.1881,0.0827 -0.28125,0.125 -0.18411,0.0836 -0.35124,0.19434 -0.53125,0.28125 -0.40103,0.19361 -0.80765,0.38358 -1.1875,0.59375 -1.01258,0.56102 -1.96616,1.16672 -2.8125,1.84375 -0.45497,0.36639 -0.88211,0.76219 -1.28125,1.15625 -0.16427,0.16267 -0.31372,0.33167 -0.46875,0.5 -0.19028,0.20697 -0.38717,0.40957 -0.5625,0.625 -0.40488,0.49502 -0.79951,1.02203 -1.125,1.5625 -0.0118,0.0194 -0.0196,0.043 -0.0312,0.0625 -0.14798,0.24886 -0.27583,0.49152 -0.40625,0.75 -0.0529,0.10305 -0.10613,0.20793 -0.15625,0.3125 -0.0568,0.12116 -0.1033,0.25179 -0.15625,0.375 -0.0546,0.1244 -0.10577,0.24859 -0.15625,0.375 -0.12287,0.31324 -0.24591,0.6426 -0.34375,0.96875 -0.35479,1.18259 -0.59574,2.42876 -0.75,3.71875 -2.33849,0.0638 -4.75395,0.19523 -7.1875,0.40625 -0.53078,0.046 -1.0634,0.10176 -1.59375,0.15625 -0.89275,0.0918 -1.77121,0.19487 -2.65625,0.3125 -1.10437,0.14679 -2.20384,0.30857 -3.28125,0.5 -0.88634,0.15748 -1.76714,0.3093 -2.625,0.5 -0.45477,0.10129 -0.899,0.23251 -1.34375,0.34375 -0.22972,0.0575 -0.46074,0.0961 -0.6875,0.15625 -0.0217,0.006 -0.0408,0.0255 -0.0625,0.0312 -0.58279,0.1556 -1.15785,0.32561 -1.71875,0.5 -0.64034,0.19876 -1.26769,0.40047 -1.875,0.625 -0.092,0.034 -0.19011,0.0591 -0.28125,0.0937 -0.58995,0.22409 -1.16582,0.46835 -1.71875,0.71875 -0.0412,0.0186 -0.0841,0.0437 -0.125,0.0625 -0.55961,0.25678 -1.07735,0.49578 -1.59375,0.78125 -0.10674,0.059 -0.20773,0.12723 -0.3125,0.1875 -0.12545,0.072 -0.25245,0.14487 -0.375,0.21875 -1.24589,0.75229 -2.3439,1.6091 -3.25,2.5625 -0.0978,0.1015 -0.18771,0.20858 -0.28125,0.3125 -0.24786,0.2796 -0.5034,0.57754 -0.71875,0.875 -0.16471,0.22752 -0.29273,0.48053 -0.4375,0.71875 -0.0619,0.28334 -0.13006,0.56366 -0.1875,0.84375 -0.0212,0.10326 -0.0423,0.20923 -0.0625,0.3125 -0.0676,0.38376 -0.13484,0.77096 -0.1875,1.15625 -0.0535,0.39124 -0.0897,0.76653 -0.125,1.15625 -0.0392,0.39726 -0.0694,0.78913 -0.0937,1.1875 -0.0461,0.74156 -0.0652,1.47464 -0.0625,2.21875 0.002,0.37409 0.0178,0.75058 0.0312,1.125 0.012,0.3429 0.041,0.68824 0.0625,1.03125 0.018,0.28126 0.0383,0.56252 0.0625,0.84375 0.0483,0.5612 0.084,1.12694 0.15625,1.6875 0.0515,0.39963 0.1244,0.78851 0.1875,1.1875 0.018,0.11456 0.0436,0.22925 0.0625,0.34375 0.0864,0.52326 0.17609,1.040977 0.28125,1.562497 0.0252,0.12487 0.0363,0.25025 0.0625,0.375 0.10281,0.48645 0.22572,0.98444 0.34375,1.46875 0.38089,1.56282 0.82364,3.09497 1.34375,4.625 0.003,0.009 -0.003,0.0219 0,0.0312 0.77815,2.28545 1.71238,4.52009 2.71875,6.6875 0.004,0.009 -0.004,0.0226 0,0.0312 0.33307,0.71664 0.68042,1.42519 1.03125,2.125 0.004,0.008 -0.004,0.023 0,0.0312 1.06145,2.11554 2.21705,4.13665 3.375,6.0625 0.005,0.008 -0.005,0.0237 0,0.0312 0.77046,1.28061 1.56704,2.51065 2.34375,3.6875 0.005,0.007 -0.005,0.0241 0,0.0312 1.5578,2.35905 3.09301,4.49779 4.5,6.34375 1.41143,1.85179 2.69482,3.41768 3.71875,4.625 0.68285,0.80515 1.10825,1.27904 1.53125,1.75 0.0825,0.0918 0.24039,0.26437 0.3125,0.34375 0.25223,0.27507 0.65625,0.71875 0.65625,0.71875 0,0 0.31308,-0.12999 0.6875,-0.3125 -0.25689,0.4554 -0.48977,0.91447 -0.71875,1.40625 -0.003,0.006 -0.0249,-0.005 -0.0312,0 -0.006,0.005 0.003,0.0249 0,0.0312 -0.0946,0.20391 -0.19148,0.41479 -0.28125,0.625 -0.0983,0.23044 -0.18865,0.44938 -0.28125,0.68749 -0.0243,0.0625 -0.0386,0.12446 -0.0625,0.1875 -0.18579,0.48907 -0.36912,1.01001 -0.53125,1.53125 -0.0406,0.13088 -0.0546,0.27333 -0.0937,0.40625 -0.14089,0.47757 -0.28468,0.96459 -0.40625,1.46875 -0.007,0.0309 -0.0239,0.0627 -0.0312,0.0937 -0.10904,0.45828 -0.1881,0.92588 -0.28125,1.40625 -0.044,0.22785 -0.11579,0.45463 -0.15625,0.6875 -0.0691,0.39731 -0.12878,0.80677 -0.1875,1.21875 -0.0324,0.22786 -0.0645,0.4551 -0.0937,0.6875 -0.0119,0.0943 -0.0199,0.18622 -0.0312,0.28125 -0.0629,0.52641 -0.10937,1.04415 -0.15625,1.59375 -0.007,0.0857 -0.0243,0.16374 -0.0312,0.25 -0.0519,0.64483 -0.0949,1.29194 -0.125,1.96875 -0.0325,0.73144 -0.0374,1.42631 -0.0312,2.09375 0.005,0.52765 0.0366,1.04205 0.0625,1.53125 0.003,0.0625 -0.004,0.12558 0,0.1875 0.0292,0.49874 0.0768,0.97787 0.125,1.4375 0.003,0.0298 -0.003,0.0641 0,0.0937 0.12502,1.19143 0.29867,2.27398 0.53125,3.21875 0.12634,0.51645 0.25602,0.98838 0.40625,1.4375 0.0736,0.21966 0.14044,0.42059 0.21875,0.625 0.0683,0.1789 0.14729,0.36366 0.21875,0.53125 0.14523,0.3406 0.31354,0.64137 0.46875,0.9375 0.13643,0.2603 0.26486,0.52186 0.40625,0.75 0.0734,0.11842 0.14455,0.23357 0.21875,0.34375 0.0491,0.0724 0.10699,0.14987 0.15625,0.21875 0.078,0.10936 0.17182,0.21161 0.25,0.3125 0.17474,0.22548 0.32759,0.4392 0.5,0.625 0.14471,0.1557 0.29749,0.30751 0.4375,0.4375 0.0254,0.0236 0.0686,0.0397 0.0937,0.0625 0.3602,0.32443 0.67723,0.57013 0.96875,0.75 0.10156,0.0627 0.1607,0.0768 0.25,0.125 0.33175,0.17896 0.47879,0.23215 0.59375,0.28125 0.0704,0.0244 0.1875,0.0625 0.1875,0.0625 -0.005,0.007 0.005,0.0247 0,0.0312 -0.0786,0.10064 -0.14436,0.19775 -0.21875,0.3125 -0.0699,0.1147 -0.15735,0.21585 -0.21875,0.34375 -0.004,0.008 0.004,0.0233 0,0.0312 -0.23945,0.50652 -0.41223,1.10357 -0.53125,1.78125 -0.002,0.0106 0.002,0.0207 0,0.0312 -0.058,0.33583 -0.12463,0.69448 -0.15625,1.0625 -0.0251,0.28571 -0.0232,0.57396 -0.0312,0.875 -0.006,0.21083 -0.0331,0.43887 -0.0312,0.65625 0.002,0.22328 0.0224,0.45816 0.0312,0.6875 0.0284,0.92108 0.0923,1.87043 0.21875,2.84375 10e-4,0.0103 -0.001,0.0209 0,0.0312 0.0572,0.43747 0.14498,0.87483 0.21875,1.3125 0.10706,0.63661 0.23922,1.25456 0.375,1.875 0.13241,0.60507 0.28291,1.17837 0.4375,1.75 0.0363,0.13322 0.0564,0.27543 0.0937,0.40625 0.0753,0.26573 0.13958,0.52689 0.21875,0.78125 0.16712,0.53282 0.3512,1.02976 0.53125,1.5 0.0732,0.19244 0.14386,0.38258 0.21875,0.5625 0.0392,0.0937 0.0854,0.19125 0.125,0.28125 0.0178,0.0408 0.0446,0.085 0.0625,0.125 0.11595,0.25728 0.22607,0.52755 0.34375,0.75 0.87367,1.65153 2.01778,3.4049 3.3125,5.1875 1.29915,1.77938 2.75776,3.58152 4.28125,5.28125 -0.1229,0.85159 -0.26873,1.97388 -0.40625,3.125 -0.0289,0.24214 -0.0654,0.40513 -0.0937,0.65625 -0.0388,0.34785 -0.0572,0.66934 -0.0937,1.03125 -0.0676,0.66946 -0.13325,1.36431 -0.1875,2.0625 -0.039,0.50223 -0.0649,0.99407 -0.0937,1.5 -0.002,0.042 0.002,0.083 0,0.125 -0.0379,0.68794 -0.0811,1.38956 -0.0937,2.0625 -0.001,0.0513 8.6e-4,0.10512 0,0.15625 -0.006,0.41881 -0.006,0.81397 0,1.21875 0.007,0.45667 0.007,0.91269 0.0312,1.34375 0.002,0.0326 -0.002,0.0614 0,0.0937 0.0296,0.50174 0.0981,0.98394 0.15625,1.4375 0.006,0.0488 -0.007,0.10809 0,0.15625 0.0326,0.23395 0.0837,0.46993 0.125,0.6875 0.0117,0.0616 0.0188,0.12728 0.0312,0.1875 0.27398,1.32153 0.7114,2.31953 1.40625,2.71875 0.0867,0.0498 0.18224,0.0886 0.28125,0.125 0.0737,0.027 0.1386,0.0427 0.21875,0.0625 0.0325,0.008 0.0602,0.0241 0.0937,0.0312 0.0774,0.0162 0.16725,0.021 0.25,0.0312 0.13762,0.0178 0.28567,0.0294 0.4375,0.0312 0.0216,2.6e-4 0.0407,6e-5 0.0625,0 0.10092,-6.1e-4 0.20595,-0.0242 0.3125,-0.0312 0.0615,-0.004 0.1242,0.006 0.1875,0 0.0196,-0.002 0.0427,0.002 0.0625,0 0.19298,-0.0208 0.38565,-0.0549 0.59375,-0.0937 0.32149,-0.0588 0.647,-0.15207 1,-0.25 0.20934,-0.0585 0.43756,-0.11677 0.65625,-0.1875 0.0888,-0.0287 0.19102,-0.0631 0.28125,-0.0937 0.26724,-0.091 0.56577,-0.20612 0.84375,-0.3125 0.15019,-0.0575 0.31593,-0.12595 0.46875,-0.1875 0.50442,-0.20317 1.00612,-0.41572 1.53125,-0.65625 0.11369,-0.0521 0.22944,-0.10269 0.34375,-0.15625 0.0902,-0.0423 0.19071,-0.0819 0.28125,-0.125 0.45261,-0.21563 0.91912,-0.45471 1.375,-0.6875 0.47384,-0.24227 0.93733,-0.49641 1.40625,-0.75 0.70744,-0.38258 1.39072,-0.76881 2.0625,-1.15625 0.67178,-0.38744 1.33082,-0.75782 1.9375,-1.125 0.69347,-0.41928 1.33853,-0.82947 1.90625,-1.1875 0.56327,0.13101 1.18007,0.26767 1.875,0.375 0.64299,0.0996 1.39502,0.16966 2.1875,0.25 0.12238,0.0122 0.24862,0.0508 0.375,0.0625 0.8172,0.0757 1.68365,0.13203 2.6875,0.1875 1.08601,0.06 2.31082,0.0886 3.65625,0.125 2.94919,0.0797 5.94631,0.0956 8.84375,0 1.1507,-0.038 2.26789,-0.11725 3.375,-0.1875 0.62775,-0.0408 1.26633,-0.0731 1.875,-0.125 1.02065,-0.087 2.01556,-0.16153 2.96875,-0.28125 0.0749,-0.009 0.14428,-0.0217 0.21875,-0.0312 1.01765,-0.13127 1.98859,-0.29707 2.90625,-0.46875 0.91766,-0.17168 1.76626,-0.34785 2.5625,-0.5625 0.31021,-0.0836 0.61672,-0.15958 0.90625,-0.25 0.0895,-0.028 0.16256,-0.0651 0.25,-0.0937 0.36375,-0.11855 0.70455,-0.24491 1.03125,-0.375 1.2041,-0.4829 2.17142,-1.03204 2.78125,-1.6875 1.42624,1.50477 2.72202,2.65497 4.3125,3.46875 0.25914,0.13648 0.53474,0.26032 0.8125,0.375 0.28166,0.11603 0.57282,0.21566 0.875,0.3125 0.009,0.003 0.0219,-0.003 0.0312,0 0.59246,0.18834 1.24549,0.34759 1.9375,0.46875 0.0102,0.002 0.021,-0.002 0.0312,0 1.4105,0.23198 3.07559,0.32051 5.0625,0.25 0.0855,-0.003 0.16325,-0.0276 0.25,-0.0312 0.93552,-0.0382 1.90308,-0.084 3,-0.1875 1.19103,-0.11235 2.31992,-0.2644 3.34375,-0.46875 0.45161,-0.0906 0.89127,-0.2051 1.3125,-0.3125 0.42123,-0.1074 0.82678,-0.22051 1.21875,-0.34375 0.11759,-0.037 0.22873,-0.0554 0.34375,-0.0937 0.27238,-0.0904 0.52305,-0.18344 0.78125,-0.28125 0.15985,-0.0607 0.31417,-0.12404 0.46875,-0.1875 0.20324,-0.0831 0.39947,-0.16225 0.59375,-0.25 0.1943,-0.0878 0.37689,-0.18905 0.5625,-0.28125 0.14088,-0.0698 0.27028,-0.14643 0.40625,-0.21875 0.22252,-0.11827 0.44648,-0.21918 0.65625,-0.34375 0.0874,-0.0519 0.16473,-0.10329 0.25,-0.15625 0.24099,-0.14942 0.46332,-0.31129 0.6875,-0.46875 0.0433,-0.0305 0.0823,-0.063 0.125,-0.0937 0.26259,-0.18872 0.50991,-0.36343 0.75,-0.5625 0.2741,-0.22745 0.53458,-0.4787 0.78125,-0.71875 0.30688,-0.29838 0.60694,-0.62263 0.875,-0.9375 0.25306,-0.29725 0.49762,-0.59599 0.71875,-0.90625 0.0137,-0.0195 0.0177,-0.043 0.0312,-0.0625 0.0888,-0.12584 0.16615,-0.24723 0.25,-0.375 0.13012,-0.20082 0.25621,-0.41994 0.375,-0.625 0.0428,-0.0733 0.0836,-0.14488 0.125,-0.21875 0.15028,-0.26963 0.30469,-0.53697 0.4375,-0.8125 0.004,-0.008 -0.004,-0.023 0,-0.0312 0.13629,-0.28398 0.28669,-0.55481 0.40625,-0.84375 -0.007,0.005 -0.009,0.0458 0.0312,0.15625 0.004,0.0158 -0.007,0.0132 0,0.0312 0.0409,0.1093 0.0984,0.25135 0.1875,0.4375 0.005,0.0109 -0.005,0.0201 0,0.0312 0.0932,0.1933 0.22511,0.43067 0.375,0.6875 0.15519,0.26671 0.3714,0.55927 0.59375,0.875 -0.11941,0.54613 -0.26497,1.20201 -0.40625,1.9375 -0.12362,0.64355 -0.25444,1.3522 -0.375,2.09375 -0.12056,0.74155 -0.21387,1.51718 -0.3125,2.3125 -0.0653,0.52646 -0.10743,1.05983 -0.15625,1.59375 -0.0398,0.44024 -0.0998,0.87517 -0.125,1.3125 -0.037,0.63243 -0.0639,1.26706 -0.0625,1.875 9e-4,0.38512 0.0119,0.75683 0.0312,1.125 0.003,0.0512 -0.003,0.10541 0,0.15625 0.019,0.31194 0.0595,0.611 0.0937,0.90625 0.0291,0.24882 0.0841,0.48401 0.125,0.71875 0.0351,0.20245 0.0492,0.40323 0.0937,0.59375 0.0152,0.0652 0.0461,0.12379 0.0625,0.1875 0.0556,0.216 0.11819,0.42759 0.1875,0.625 0.0481,0.13702 0.10116,0.27903 0.15625,0.40625 0.0827,0.18856 0.18223,0.36636 0.28125,0.53125 0.0431,0.0718 0.0786,0.15171 0.125,0.21875 0.0385,0.0561 0.0842,0.10363 0.125,0.15625 0.1189,0.15237 0.23601,0.3161 0.375,0.4375 0.0111,0.01 0.0201,0.0219 0.0312,0.0312 0.0798,0.0675 0.16335,0.13077 0.25,0.1875 0.012,0.008 0.0191,0.0237 0.0312,0.0312 0.10009,0.0631 0.20321,0.10796 0.3125,0.15625 0.26282,0.11613 0.56308,0.18553 0.875,0.21875 0.31192,0.0332 0.64623,0.01 1,-0.0312 0.3443,-0.0398 0.7166,-0.11694 1.09375,-0.21875 0.38841,-0.10633 0.803,-0.24334 1.21875,-0.40625 0.41568,-0.16281 0.8455,-0.35191 1.28125,-0.5625 0.43583,-0.21071 0.89511,-0.43778 1.34375,-0.6875 0.88985,-0.49515 1.78989,-1.05916 2.6875,-1.65625 1.80991,-1.20555 3.60181,-2.55277 5.09375,-3.75 1.49165,-1.19683 2.69712,-2.24832 3.40625,-2.875 2.35774,0.22355 4.65405,0.3125 6.5625,0.3125 0.66641,0 1.29936,0.02 1.875,0 0.0108,-3.8e-4 0.0204,3.9e-4 0.0312,0 0.50644,-0.018 0.97911,-0.0529 1.4375,-0.0937 0.0756,-0.007 0.14411,-0.0238 0.21875,-0.0312 0.52218,-0.0518 1.00782,-0.12571 1.5,-0.21875 0.46007,-0.087 0.91427,-0.18085 1.375,-0.3125 0.0313,-0.009 0.0624,-0.0221 0.0937,-0.0312 0.0211,-0.006 0.0413,-0.025 0.0625,-0.0312 0.4736,-0.14066 0.96376,-0.30261 1.46875,-0.5 0.52754,-0.2062 1.06335,-0.44063 1.65625,-0.71875 0.14153,-0.0664 0.32237,-0.1479 0.46875,-0.21875 0.46053,-0.22275 0.95198,-0.48056 1.46875,-0.75 0.0758,-0.0396 0.17282,-0.0844 0.25,-0.125 0.61703,-0.32486 1.28342,-0.66645 2,-1.0625 1.69532,-0.937 3.32252,-2.25296 4.6875,-3.75 0.005,-0.006 -0.005,-0.0256 0,-0.0312 0.45033,-0.49509 0.89531,-1.00197 1.28125,-1.53125 0.005,-0.007 -0.005,-0.0245 0,-0.0312 0.24642,-0.33896 0.47223,-0.68282 0.6875,-1.03125 0.21346,-0.34248 0.41428,-0.68362 0.59375,-1.03125 0.17947,-0.34763 0.32686,-0.68038 0.46875,-1.03125 0.0299,-0.0739 0.0656,-0.14471 0.0937,-0.21875 0.42812,-1.12967 0.66486,-2.2677 0.625,-3.34375 0.28064,0.12953 0.62269,0.26524 1,0.40625 0.16539,0.0622 0.34881,0.12665 0.53125,0.1875 0.24951,0.0827 0.5018,0.1434 0.78125,0.21875 0.27434,0.075 0.54236,0.1561 0.84375,0.21875 0.0773,0.0159 0.13975,0.0476 0.21875,0.0625 0.0635,0.0121 0.12288,0.0198 0.1875,0.0312 0.39959,0.07 0.81235,0.12011 1.25,0.15625 0.23246,0.0195 0.47632,0.0237 0.71875,0.0312 0.0723,0.002 0.14565,-10e-4 0.21875,0 0.27973,0.004 0.55218,0.0143 0.84375,0 0.58805,-0.0297 1.21529,-0.0985 1.84375,-0.21875 0.31423,-0.0601 0.61475,-0.1322 0.9375,-0.21875 0.4746,-0.12696 0.94651,-0.30844 1.4375,-0.5 0.01,-0.004 0.0217,0.004 0.0312,0 0.0215,-0.008 0.041,-0.0227 0.0625,-0.0312 0.15069,-0.06 0.31684,-0.12097 0.46875,-0.1875 0.33661,-0.14701 0.65805,-0.28772 1,-0.46875 0.27074,-0.14333 0.5299,-0.28876 0.78125,-0.4375 0.0655,-0.04 0.12325,-0.0847 0.1875,-0.125 0.0326,-0.0198 0.0615,-0.0426 0.0937,-0.0625 0.14685,-0.0933 0.29694,-0.18822 0.4375,-0.28125 0.39343,-0.2612 0.75015,-0.53743 1.09375,-0.8125 0.0181,-0.0145 0.0445,-0.0167 0.0625,-0.0312 0.32307,-0.26128 0.62619,-0.53871 0.90625,-0.8125 0.24096,-0.23556 0.44603,-0.47388 0.65625,-0.71875 0.047,-0.0551 0.11075,-0.10075 0.15625,-0.15625 0.0671,-0.0815 0.12368,-0.16753 0.1875,-0.25 0.2369,-0.30624 0.46088,-0.61826 0.65625,-0.9375 0.012,-0.0198 0.0193,-0.0425 0.0312,-0.0625 0.21778,-0.36375 0.42592,-0.74706 0.59375,-1.125 0.27317,-0.61445 0.49673,-1.25255 0.65625,-1.90625 0.005,-0.0198 -0.005,-0.0427 0,-0.0625 0.0762,-0.31769 0.13496,-0.6428 0.1875,-0.96875 0.008,-0.0525 0.0234,-0.10352 0.0312,-0.15625 0.0416,-0.27801 0.0988,-0.55948 0.125,-0.84375 0.006,-0.0606 -0.005,-0.12662 0,-0.1875 0.0375,-0.4675 0.0604,-0.955 0.0625,-1.4375 9e-5,-0.0209 -3e-5,-0.0415 0,-0.0625 2e-5,-0.0105 0,-0.0208 0,-0.0312 0.40216,0.0175 0.84708,-0.0418 1.3125,-0.1875 0.0621,-0.0195 0.12444,-0.0403 0.1875,-0.0625 0.0287,-0.0101 0.0649,-0.0206 0.0937,-0.0312 0.24231,-0.0896 0.49574,-0.21681 0.75,-0.34375 0.28458,-0.14208 0.54734,-0.28334 0.84375,-0.46875 0.23574,-0.14746 0.47741,-0.32722 0.71875,-0.5 0.0619,-0.0443 0.1253,-0.0791 0.1875,-0.125 0.0223,-0.0165 0.0401,-0.0458 0.0625,-0.0625 0.28307,-0.21114 0.58758,-0.44557 0.875,-0.6875 0.61505,-0.5177 1.25902,-1.08113 1.875,-1.71875 0.005,-0.006 -0.005,-0.0258 0,-0.0312 0.3052,-0.31641 0.60564,-0.62822 0.90625,-0.96875 0.005,-0.006 -0.005,-0.0254 0,-0.0312 2.14027,-2.42812 4.1196,-5.41449 5.375,-8.34375 0.3605,-0.84118 0.64927,-1.75049 0.84375,-2.6875 0.29149,-1.4057 0.3973,-2.88364 0.375,-4.40625 -0.009,-0.65242 -0.0398,-1.31573 -0.0937,-1.96875 -0.0102,-0.11457 -0.0197,-0.22923 -0.0312,-0.34375 -0.0239,-0.25172 -0.0631,-0.49879 -0.0937,-0.75 -0.12814,-1.00862 -0.31024,-2.02537 -0.53125,-3 -0.002,-0.01 0.002,-0.0213 0,-0.0312 -0.13931,-0.6117 -0.29909,-1.19512 -0.46875,-1.78125 -0.1047,-0.36399 -0.19773,-0.71085 -0.3125,-1.0625 -0.0741,-0.2259 -0.14077,-0.43636 -0.21875,-0.65625 -0.079,-0.22453 -0.16738,-0.43858 -0.25,-0.65625 -0.008,-0.0221 -0.0228,-0.0405 -0.0312,-0.0625 -0.15659,-0.4062 -0.33226,-0.8088 -0.5,-1.1875 -0.17682,-0.3992 -0.34446,-0.7923 -0.53125,-1.15625 -0.37359,-0.7279 -0.75771,-1.37955 -1.15625,-1.9375 0.18931,-0.22916 0.34121,-0.49466 0.5,-0.78125 0.11793,-0.21285 0.24205,-0.44649 0.34375,-0.6875 0.0326,-0.0781 0.0628,-0.16915 0.0937,-0.25 0.12952,-0.3367 0.24226,-0.68302 0.34375,-1.0625 0.051,-0.19086 0.11206,-0.39346 0.15625,-0.59375 0.0176,-0.081 0.0148,-0.16753 0.0312,-0.25 0.0542,-0.27115 0.11377,-0.52713 0.15625,-0.8125 0.10232,-0.68741 0.17973,-1.43899 0.21875,-2.1875 0.003,-0.0618 -0.003,-0.12539 0,-0.1875 0.0184,-0.40725 0.0297,-0.80115 0.0312,-1.21874 0.004,-0.95469 -0.0128,-1.94159 -0.0937,-2.90625 -0.0631,-0.74913 -0.17072,-1.49622 -0.28125,-2.21875 -0.0139,-0.0926 -0.0166,-0.18936 -0.0312,-0.28125 -0.0194,-0.11962 -0.0419,-0.2254 -0.0625,-0.34375 -0.1184,-0.68108 -0.2508,-1.34356 -0.40625,-1.96875 -0.0535,-0.21505 -0.0988,-0.41844 -0.15625,-0.625 -0.0416,-0.15253 -0.0813,-0.29003 -0.125,-0.4375 -0.0757,-0.2518 -0.13728,-0.48321 -0.21875,-0.71875 -0.03,-0.0883 -0.063,-0.16416 -0.0937,-0.25 -0.097,-0.26655 -0.20859,-0.54041 -0.3125,-0.78125 -0.0197,-0.0459 -0.0426,-0.0801 -0.0625,-0.125 -0.1224,-0.27544 -0.24423,-0.51462 -0.375,-0.75 -0.25518,-0.45932 -0.54103,-0.89612 -0.84375,-1.3125 -0.30272,-0.41638 -0.62691,-0.81192 -0.96875,-1.1875 -0.13573,-0.14913 -0.26528,-0.29457 -0.40625,-0.4375 -0.21223,-0.2141 -0.43365,-0.42457 -0.65625,-0.625 -0.37255,-0.33689 -0.76141,-0.66842 -1.15625,-0.96875 -0.39744,-0.30066 -0.80741,-0.57775 -1.21875,-0.84375 -0.40871,-0.26589 -0.80458,-0.51643 -1.21875,-0.75 -0.16823,-0.0949 -0.33185,-0.19146 -0.5,-0.28125 -0.25492,-0.13574 -0.49699,-0.25036 -0.75,-0.375 -0.41121,-0.20338 -0.81891,-0.38719 -1.21875,-0.5625 -1.29269,-0.56769 -2.48866,-0.98303 -3.46875,-1.3125 -0.48736,-0.16389 -0.89132,-0.28669 -1.25,-0.40625 0.003,-0.01 -0.003,-0.0217 0,-0.0312 0.13782,-0.51473 0.24241,-1.07392 0.34375,-1.6875 0.01,-0.0587 0.022,-0.12789 0.0312,-0.1875 0.067,-0.43396 0.11338,-0.89569 0.15625,-1.375 0.0429,-0.47931 0.0822,-0.97622 0.0937,-1.5 0.008,-0.38616 0.0104,-0.77904 0,-1.1875 -0.0297,-1.18733 -0.14861,-2.47034 -0.375,-3.84375 -0.002,-0.01 0.002,-0.0216 0,-0.0312 -0.15261,-0.91521 -0.36573,-1.88366 -0.625,-2.875 -0.65536,-2.50386 -1.67495,-5.24525 -3.1875,-8.187497 -0.2326,-0.45246 -0.45033,-0.88608 -0.6875,-1.3125 -0.23317,-0.41952 -0.47821,-0.82172 -0.71875,-1.21875 -0.72734,-1.20204 -1.46759,-2.2726 -2.3125,-3.3125 -0.27428,-0.3434 -0.54726,-0.66952 -0.84375,-1 -0.2965,-0.33048 -0.61989,-0.64851 -0.9375,-0.96875 -0.31233,-0.31491 -0.63513,-0.63198 -0.96875,-0.9375 -0.17069,-0.15633 -0.35406,-0.31389 -0.53125,-0.46875 -0.52865,-0.46106 -1.09101,-0.91835 -1.6875,-1.375 -0.2293,-0.17554 -0.47868,-0.35229 -0.71875,-0.53125 -0.17311,-0.12671 -0.32116,-0.27948 -0.5,-0.40625 -0.007,-0.005 -0.0244,0.005 -0.0312,0 -0.43621,-0.30883 -0.87141,-0.59516 -1.34375,-0.90625 -0.18314,-0.12066 -0.37382,-0.25417 -0.5625,-0.375 -0.76996,-0.49464 -1.56492,-0.98892 -2.4375,-1.5 -1.08385,-0.63 -2.26532,-1.25765 -3.53125,-1.9375 -0.35971,-0.19319 -0.72475,-0.38417 -1.09375,-0.5625 -0.3703,-0.17896 -0.74488,-0.36337 -1.125,-0.53125 -0.0511,-0.0222 -0.10496,-0.0405 -0.15625,-0.0625 -0.7057,-0.30214 -1.42616,-0.58868 -2.15625,-0.84375 -1.56631,-0.54722 -3.1756,-0.98877 -4.8125,-1.34375 -0.81845,-0.17749 -1.64331,-0.33308 -2.46875,-0.46875 -0.40831,-0.0671 -0.81003,-0.12986 -1.21875,-0.1875 -0.41255,-0.0581 -0.83794,-0.10726 -1.25,-0.15625 -0.82533,-0.098 -1.65064,-0.18549 -2.46875,-0.25 -1.22667,-0.0968 -2.43458,-0.15454 -3.625,-0.1875 -1.19042,-0.033 -2.36977,-0.048 -3.5,-0.0312 -0.75383,0.011 -1.50056,0.0346 -2.21875,0.0625 -0.54263,0.0215 -1.07519,0.0335 -1.59375,0.0625 -0.60154,0.0334 -1.12273,0.0841 -1.6875,0.125 -0.24202,0.0175 -0.51531,0.044 -0.75,0.0625 -0.59201,0.047 -1.24084,0.10542 -1.78125,0.15625 -1.1373,0.10697 -2.16439,0.21299 -3.03125,0.3125 -0.37336,-0.40257 -0.78961,-0.78601 -1.21875,-1.15625 -0.39615,-0.34178 -0.8104,-0.65397 -1.25,-0.96875 -0.035,-0.0251 -0.0585,-0.0688 -0.0937,-0.0937 -0.20885,-0.14734 -0.43846,-0.29606 -0.65625,-0.4375 -0.28541,-0.18517 -0.57503,-0.35611 -0.875,-0.53125 -0.1236,-0.0723 -0.24904,-0.14812 -0.375,-0.21875 -0.40352,-0.22551 -0.8237,-0.44784 -1.25,-0.65625 -0.0328,-0.0161 -0.0608,-0.0465 -0.0937,-0.0625 -0.53141,-0.25709 -1.09366,-0.48748 -1.65625,-0.71875 -0.40385,-0.16606 -0.83192,-0.34699 -1.25,-0.5 -0.20337,-0.0742 -0.41854,-0.14765 -0.625,-0.21875 -0.0617,-0.0213 -0.12549,-0.0414 -0.1875,-0.0625 -0.574,-0.19493 -1.15512,-0.3593 -1.75,-0.53125 -0.65915,-0.19052 -1.31995,-0.3683 -2,-0.53125 -0.0828,-0.0199 -0.1669,-0.0431 -0.25,-0.0625 -0.60463,-0.14131 -1.19565,-0.286 -1.8125,-0.40625 -0.51946,-0.10155 -1.0366,-0.19436 -1.5625,-0.28125 -0.17764,-0.0293 -0.35304,-0.0661 -0.53125,-0.0937 -0.38936,-0.0605 -0.79599,-0.10354 -1.1875,-0.15625 -0.31969,-0.0429 -0.64815,-0.0872 -0.96875,-0.125 -0.26253,-0.0311 -0.51838,-0.0661 -0.78125,-0.0937 -0.14619,-0.0154 -0.29126,-0.0169 -0.4375,-0.0312 -1.01326,-0.0992 -2.02409,-0.16841 -3.03125,-0.21875 -0.0104,-5.2e-4 -0.0208,5.1e-4 -0.0312,0 -1.0649,-0.0527 -2.11822,-0.0945 -3.15625,-0.0937 -1.03803,7.3e-4 -2.06075,0.0439 -3.0625,0.0937 6.3e-4,-0.33226 -0.0149,-0.6841 -0.0312,-1 -0.0285,-0.54091 -0.0714,-1.04905 -0.15625,-1.53125 -0.0375,-0.21312 -0.0754,-0.42532 -0.125,-0.625 -0.008,-0.0321 -0.023,-0.062 -0.0312,-0.0937 -0.028,-0.10746 -0.0619,-0.20935 -0.0937,-0.3125 -0.0367,-0.12045 -0.083,-0.22942 -0.125,-0.34375 -0.0767,-0.20807 -0.15508,-0.40741 -0.25,-0.59375 -0.071,-0.1394 -0.13703,-0.27992 -0.21875,-0.40625 -0.029,-0.0452 -0.0634,-0.0815 -0.0937,-0.125 -0.009,-0.0124 -0.0224,-0.019 -0.0312,-0.0312 -0.10687,-0.14857 -0.21953,-0.27944 -0.34375,-0.40625 -0.13451,-0.13731 -0.28165,-0.26499 -0.4375,-0.375 -0.14805,-0.1045 -0.30008,-0.19848 -0.46875,-0.28125 -0.16867,-0.0828 -0.34334,-0.15665 -0.53125,-0.21875 -0.18791,-0.0621 -0.38797,-0.11377 -0.59375,-0.15625 -0.20578,-0.0425 -0.43398,-0.0698 -0.65625,-0.0937 -0.1273,-0.0135 -0.24265,-0.0235 -0.375,-0.0312 -0.26471,-0.0154 -0.52913,-0.0379 -0.8125,-0.0312 -0.29782,0.006 -0.62132,0.0335 -0.9375,0.0625 -0.44414,0.0418 -0.93193,0.10565 -1.40625,0.1875 -0.26055,0.0449 -0.51312,0.10042 -0.78125,0.15625 -0.54701,0.11383 -1.08485,0.25241 -1.65625,0.40625 -0.53951,0.14526 -1.10318,0.3253 -1.65625,0.5 -0.15504,0.049 -0.31305,0.074 -0.46875,0.125 -0.0856,0.0281 -0.16424,0.0651 -0.25,0.0937 -1.33156,0.444 -2.68777,0.96116 -4,1.5 -0.25588,-0.2685 -0.54906,-0.49412 -0.8125,-0.75 -0.36869,-0.35812 -0.7448,-0.7223 -1.125,-1.0625 -0.0337,-0.0291 -0.0599,-0.0648 -0.0937,-0.0937 -0.41438,-0.36708 -0.83904,-0.70087 -1.28125,-1.03125 -0.44322,-0.33056 -0.9068,-0.66753 -1.375,-0.96875 -0.15403,-0.0994 -0.31201,-0.18511 -0.46875,-0.28125 -0.31636,-0.19346 -0.64008,-0.38192 -0.96875,-0.5625 -0.32861,-0.1807 -0.65827,-0.33229 -1,-0.5 -0.006,-0.003 0.006,-0.0285 0,-0.0312 -0.53875,-0.26385 -1.11489,-0.52023 -1.6875,-0.75 -0.009,-0.004 -0.0224,0.004 -0.0312,0 -0.58207,-0.23281 -1.15767,-0.45585 -1.78125,-0.65625 -0.31215,-0.10078 -0.64601,-0.18902 -0.96875,-0.28125 -0.64476,-0.1834 -1.31043,-0.35076 -2,-0.5 -0.34046,-0.074 -0.67927,-0.15312 -1.03125,-0.21875 -0.004,-10e-4 -0.0264,0.001 -0.0312,0 -0.35706,-0.0664 -0.6932,-0.12972 -1.0625,-0.1875 -0.91234,-0.14209 -1.88359,-0.25194 -2.875,-0.34375 -0.0694,-0.006 -0.14896,0.006 -0.21875,0 -0.9407,-0.0785 -1.92234,-0.15475 -2.9375,-0.1875 -0.87361,-0.0282 -1.73446,-0.0698 -2.59375,-0.0625 z m -31.21875,31.6875 c 3.4024,0 6.1875,2.62456 6.1875,5.875 0,3.250447 -2.7851,5.874997 -6.1875,5.874997 -3.40238,0 -6.15625,-2.62455 -6.15625,-5.874997 0,-3.25044 2.75387,-5.875 6.15625,-5.875 z"
         id="path4752-7-8"
         inkscape:connector-curvature="0"
         inkscape:export-filename="/home/miguel/Dropbox/gsi/ewe/ewe_banner2.png"
         inkscape:export-xdpi="27.647152"
         inkscape:export-ydpi="27.647152" />
    </g>
    <path
       style="fill:#37c837"
       d="m 396.84538,383.18622 c -3.7549,-8.39768 -5.49242,-16.47614 -4.90442,-22.80277 0.38472,-4.1394 1.28669,-5.65782 4.70646,-7.92298 2.42871,-1.6087 8.2593,-3.67572 12.20673,-4.32742 l 2.20828,-0.36458 -3.38363,3.96559 c -3.72178,4.36191 -7.36779,11.17566 -8.61212,16.09456 -1.10418,4.36487 -1.45021,10.53265 -0.83502,14.88377 0.29332,2.07465 0.46416,3.84125 0.37963,3.92578 -0.0845,0.0845 -0.87919,-1.46885 -1.76591,-3.45195 l 0,0 z"
       id="path3099"
       inkscape:connector-curvature="0" />
    <path
       style="fill:#37c837"
       d="m 426.94839,485.45858 c -0.77603,-2.04111 -0.95685,-8.88207 -0.23477,-8.88207 0.25401,0 3.38794,0.93109 6.96429,2.06909 3.57634,1.138 7.13002,2.18411 7.89706,2.32467 1.81854,0.33327 -9.72126,6.32052 -12.18213,6.32052 -1.21896,0 -1.95863,-0.55442 -2.44445,-1.83221 z"
       id="path3101"
       inkscape:connector-curvature="0" />
    <path
       style="fill:#37c837"
       d="m 515.24308,490.63089 c -0.78513,-2.24316 -0.96807,-9.7613 -0.23752,-9.7613 0.25697,0 3.42764,1.02326 7.04589,2.2739 3.61826,1.25066 7.21358,2.40031 7.98961,2.5548 1.83985,0.36626 -9.83518,6.94618 -12.32489,6.94618 -1.23325,0 -1.98158,-0.6093 -2.47309,-2.01358 z"
       id="path3101-3"
       inkscape:connector-curvature="0" />
    <path
       style="fill:#37c837"
       d="m 509.39386,437.02619 c -8.85758,-1.33157 -14.28657,-6.32071 -13.59475,-12.49354 l 0.19926,-1.77774 -1.73521,-1.43316 c -3.83875,-3.17026 -7.93748,-5.08257 -13.07908,-6.10192 -3.45987,-0.68629 -5.05948,-0.68374 -6.23355,0.009 -0.5122,0.30161 -2.0055,0.901 -3.31891,1.33067 -2.08293,0.68119 -2.84603,0.78087 -5.97036,0.78087 -3.11296,0 -3.89504,-0.10225 -5.97036,-0.77576 -10.04166,-3.26061 -12.80651,-12.1164 -5.72909,-18.35059 2.9264,-2.57776 6.73144,-3.82384 11.69945,-3.83125 3.64858,-0.005 6.24131,0.5815 8.96215,2.02861 l 1.49919,0.79748 2.97855,-0.38341 c 6.06692,-0.77959 11.14458,-2.94225 15.25013,-6.49438 l 1.46013,-1.26397 0.008,-2.52804 c 0.0109,-3.26611 0.86928,-5.171 3.36986,-7.4841 5.20098,-4.80995 14.64177,-5.79735 21.31773,-2.22963 8.97512,4.79653 8.55358,14.83322 -0.80643,19.19562 -1.14478,0.53292 -2.31095,0.97001 -2.59167,0.97001 -0.46005,0 -1.74525,1.36608 -1.74525,1.85518 0,0.11501 -0.18053,0.60195 -0.4012,1.09654 -0.91208,2.0392 -1.13541,3.19351 -1.1421,5.88119 -0.006,2.69036 0.22334,3.93285 1.08191,5.85806 0.20997,0.47032 0.5657,1.27035 0.79038,1.7776 0.33033,0.74509 0.70479,1.01092 1.94813,1.38435 3.65687,1.09911 6.77344,3.4959 8.23476,6.33235 0.87597,1.70142 0.98162,2.16393 0.98162,4.33542 0,2.02962 -0.13373,2.68972 -0.77967,3.99982 -1.37587,2.76985 -4.70468,5.42136 -8.19559,6.52825 -3.02429,0.95852 -6.20372,1.32761 -8.4882,0.98408 l 0,0 z m -10.75301,-8.53258 c -0.29689,-1.01219 -0.29422,-1.5303 0.0134,-2.61713 0.2113,-0.74508 0.48011,-1.48339 0.59914,-1.64021 0.12036,-0.15719 0.31294,-0.58789 0.43195,-0.95851 0.12037,-0.37063 0.49349,-0.97896 0.83318,-1.3519 0.54297,-0.59683 0.7984,-0.65945 2.13362,-0.52271 1.96578,0.20193 3.45666,-0.57894 3.45666,-1.81287 0,-0.44219 -0.15245,-0.94829 -0.33835,-1.12594 -0.444,-0.4243 1.09931,-1.35022 3.27572,-1.96392 1.81987,-0.51376 5.90362,-0.7272 7.74369,-0.40514 1.82148,0.31823 1.27048,-0.11502 -0.87864,-0.69141 -1.84449,-0.49459 -5.81363,-0.67224 -7.5677,-0.33867 -1.72692,0.32844 -4.40565,1.32645 -5.87072,2.18797 -1.45946,0.85883 -3.52835,2.63732 -3.52835,3.03427 0,0.11503 -0.25543,0.47032 -0.56837,0.79365 -1.29456,1.34129 -1.38069,6.86259 -0.13508,8.67828 0.67938,0.99047 0.87597,0.36423 0.39854,-1.26396 z m 4.02143,-12.56677 c 0.77166,-0.4128 1.96043,-0.90612 2.64088,-1.09909 1.43377,-0.40514 1.94411,-1.12211 3.06027,-4.29888 1.27584,-3.63317 0.91341,-8.04655 -0.96156,-11.70642 -0.65932,-1.28722 -0.9736,-1.59586 -1.86347,-1.83102 -0.58844,-0.15592 -1.86146,-0.6684 -2.82864,-1.14 -2.00229,-0.97512 -2.75322,-1.02753 -6.07734,-0.42558 -5.5487,1.00581 -10.23626,3.1392 -13.97096,6.35867 l -1.42375,1.2269 0,2.81867 0,2.8188 1.31596,1.16556 c 3.75596,3.32388 8.00809,5.2464 14.7497,6.66884 1.8652,0.39363 3.992,0.17254 5.35838,-0.55722 l 0,0 z m -49.60774,-6.02561 c -0.46004,-1.57043 -0.20728,-4.51321 0.50018,-5.82113 1.17152,-2.16816 1.57326,-2.43157 3.5246,-2.30913 1.50105,0.0895 1.82429,0.0128 2.574,-0.616 0.84521,-0.71186 0.92011,-1.21923 0.36777,-2.46211 -0.2153,-0.48437 1.52232,-1.43521 3.40238,-1.86028 0.57506,-0.13037 1.11134,-0.25305 1.19425,-0.2735 1.46949,-0.36296 3.92795,-0.43197 5.41603,-0.15336 2.15514,0.40513 2.58404,0.20447 0.97359,-0.45498 -1.80904,-0.74126 -8.41772,-0.71569 -10.71784,0.0383 -0.96155,0.31567 -2.05538,0.7617 -2.53736,1.03392 -0.24607,0.1393 -0.74892,0.37701 -1.11802,0.5291 -1.0418,0.43069 -3.52046,2.90903 -4.22044,4.22015 -1.21833,2.28204 -1.33842,5.188 -0.30892,7.47464 0.68606,1.52454 1.33736,1.96955 0.95085,0.6505 l 0,0 z m 45.89123,-19.45122 c 0,-0.30417 -0.14443,-0.91379 -0.3223,-1.35508 -0.33969,-0.84733 0.1431,-3.94487 0.66333,-4.25147 0.14042,-0.0767 0.25543,-0.3834 0.25543,-0.66585 0,-0.28372 0.38115,-0.93295 0.84788,-1.44314 0.67136,-0.73358 0.98831,-0.88567 1.52232,-0.72335 1.35514,0.41152 2.15675,0.34506 3.09209,-0.25561 1.01506,-0.65179 1.41332,-1.89313 0.82382,-2.57125 -0.35841,-0.4128 -0.12037,-0.66201 1.17687,-1.22435 2.36378,-1.02752 3.95871,-1.27891 7.48357,-1.17961 1.95883,0.0511 3.56152,0.0767 3.56152,0.0383 0,-0.0256 -0.97359,-0.33612 -2.1621,-0.67479 -3.43607,-0.97768 -8.39579,-0.5815 -11.86823,0.94829 -1.2063,0.53166 -3.68134,2.25328 -4.27406,2.97345 -0.3009,0.3655 -0.71013,0.82559 -0.9094,1.02113 -0.19927,0.19554 -0.61518,0.86906 -0.92412,1.49618 -0.76497,1.55088 -0.77566,5.83748 -0.0134,7.36255 0.56838,1.14511 1.0525,1.37566 1.0525,0.50098 z"
       id="path3248"
       inkscape:connector-curvature="0" />
  </g>
</svg>
