<svg xmlns="http://www.w3.org/2000/svg" xmlns:xlink="http://www.w3.org/1999/xlink" width="795px" height="597px" version="1.1"><defs/><g transform="translate(0.5,0.5)"><rect x="1" y="5" width="790" height="590" fill="#ffffff" stroke="#ffffff" pointer-events="none"/><rect x="2" y="284" width="390" height="310" fill="#ffffff" stroke="#000000" pointer-events="none"/><rect x="392" y="284" width="400" height="310" fill="#ffffff" stroke="#000000" pointer-events="none"/><rect x="2" y="2" width="790" height="10" fill="#000000" stroke="#000000" pointer-events="none"/><rect x="93" y="584" width="658" height="10" fill="#000000" stroke="#000000" pointer-events="none"/><path d="M 1 594 L 1 494 L 101 494 L 101 504 L 11 504 L 11 594 Z" fill="#000000" stroke="#000000" stroke-miterlimit="10" transform="rotate(270,51,544)" pointer-events="none"/><path d="M 692 594 L 692 494 L 792 494 L 792 504 L 702 504 L 702 594 Z" fill="#000000" stroke="#000000" stroke-miterlimit="10" transform="rotate(180,742,544)" pointer-events="none"/><path d="M 692 102 L 692 2 L 792 2 L 792 12 L 702 12 L 702 102 Z" fill="#000000" stroke="#000000" stroke-miterlimit="10" transform="rotate(90,742,52)" pointer-events="none"/><rect x="576" y="308" width="423" height="10" fill="#000000" stroke="#000000" transform="rotate(90,787,313)" pointer-events="none"/><path d="M 2 102 L 2 2 L 102 2 L 102 12 L 12 12 L 12 102 Z" fill="#000000" stroke="#000000" stroke-miterlimit="10" pointer-events="none"/><rect x="-195" y="297" width="404" height="10" fill="#000000" stroke="#000000" transform="rotate(90,7,302)" pointer-events="none"/><rect x="282" y="283" width="80" height="5" fill="#ffffff" stroke="#000000" pointer-events="none"/><path d="M 282 288 C 282 332 318 368 362 368 L 362 288" fill="none" stroke="#000000" stroke-miterlimit="10" pointer-events="none"/><rect x="422" y="282" width="80" height="5" fill="#ffffff" stroke="#000000" pointer-events="none"/><path d="M 502 287 C 502 331 466 367 422 367 L 422 287" fill="none" stroke="#000000" stroke-miterlimit="10" pointer-events="none"/><rect x="10" y="83" width="80" height="5" fill="#ffffff" stroke="#000000" transform="rotate(-90,50,126)" pointer-events="none"/><path d="M 10 88 C 10 132 46 168 90 168 L 90 88" fill="none" stroke="#000000" stroke-miterlimit="10" transform="rotate(-90,50,126)" pointer-events="none"/><rect x="534" y="29" width="115" height="9" fill="#ffffff" stroke="#000000" pointer-events="none"/><rect x="525" y="20" width="13" height="71" rx="3" ry="3" fill="#ffffff" stroke="#000000" pointer-events="none"/><rect x="538" y="20" width="107" height="13" rx="3" ry="3" fill="#ffffff" stroke="#000000" pointer-events="none"/><rect x="538" y="33" width="53" height="58" rx="3" ry="3" fill="#ffffff" stroke="#000000" pointer-events="none"/><rect x="592" y="33" width="53" height="58" rx="3" ry="3" fill="#ffffff" stroke="#000000" pointer-events="none"/><rect x="645" y="20" width="13" height="71" rx="3" ry="3" fill="#ffffff" stroke="#000000" pointer-events="none"/><ellipse cx="481" cy="559" rx="14.892268694550062" ry="14.961861920594561" fill="#ffffff" stroke="#000000" pointer-events="none"/><ellipse cx="480" cy="572" rx="5.261934938741022" ry="11.769998044201056" fill="#ffffff" stroke="#000000" pointer-events="none"/><path d="M 481 559 C 482 560 481 562 480 564 C 479 567 477 569 474 572 C 468 576 462 578 461 576 C 460 575 460 573 461 571 C 463 568 465 566 467 564 C 473 559 479 557 481 559 Z" fill="#ffffff" stroke="#000000" stroke-miterlimit="10" pointer-events="none"/><path d="M 454 546 C 455 543 463 544 471 547 C 474 549 478 551 480 554 C 482 556 483 558 482 560 C 481 563 473 562 465 558 C 461 556 458 554 456 552 C 454 549 453 547 454 546 Z" fill="#ffffff" stroke="#000000" stroke-miterlimit="10" pointer-events="none"/><path d="M 483 557 C 486 554 493 556 498 561 C 501 564 503 567 504 569 C 506 572 505 574 504 576 C 502 578 495 576 489 571 C 486 569 484 566 483 563 C 482 560 482 558 483 557 Z" fill="#ffffff" stroke="#000000" stroke-miterlimit="10" pointer-events="none"/><path d="M 508 547 C 508 548 508 550 506 552 C 504 554 500 557 497 559 C 489 563 482 564 481 562 C 480 561 481 559 483 556 C 485 554 488 552 492 550 C 499 546 506 544 508 547 Z" fill="#ffffff" stroke="#000000" stroke-miterlimit="10" pointer-events="none"/><path d="M 476 536 C 479 536 482 541 484 548 C 484 551 485 555 484 557 C 484 560 483 562 481 562 C 479 562 475 557 474 550 C 473 547 473 543 473 541 C 474 538 474 536 476 536 Z" fill="#ffffff" stroke="#000000" stroke-miterlimit="10" pointer-events="none"/><path d="M 490 543 C 491 544 492 545 491 547 C 491 550 490 552 489 555 C 486 560 482 563 480 562 C 479 561 479 560 479 558 C 479 556 480 553 482 551 C 484 546 488 542 490 543 Z" fill="#ffffff" stroke="#000000" stroke-miterlimit="10" pointer-events="none"/><rect x="532" y="445" width="160" height="81" fill="#ffffff" stroke="#000000" transform="rotate(90,612,485)" pointer-events="none"/><rect x="532" y="445" width="18" height="11" fill="none" stroke="#000000" transform="rotate(90,612,485)" pointer-events="none"/><rect x="532" y="515" width="18" height="11" fill="none" stroke="#000000" transform="rotate(90,612,485)" pointer-events="none"/><rect x="674" y="445" width="18" height="11" fill="none" stroke="#000000" transform="rotate(90,612,485)" pointer-events="none"/><rect x="674" y="515" width="18" height="11" fill="none" stroke="#000000" transform="rotate(90,612,485)" pointer-events="none"/><rect x="582" y="288" width="120" height="50" fill="#ffffff" stroke="#000000" pointer-events="none"/><rect x="582" y="288" width="13" height="7" fill="none" stroke="#000000" pointer-events="none"/><rect x="582" y="331" width="13" height="7" fill="none" stroke="#000000" pointer-events="none"/><rect x="689" y="288" width="13" height="7" fill="none" stroke="#000000" pointer-events="none"/><rect x="689" y="331" width="13" height="7" fill="none" stroke="#000000" pointer-events="none"/><rect x="632" y="126" width="55" height="51" fill="#ffffff" stroke="#000000" pointer-events="none"/><rect x="632" y="126" width="6" height="7" fill="none" stroke="#000000" pointer-events="none"/><rect x="632" y="170" width="6" height="7" fill="none" stroke="#000000" pointer-events="none"/><rect x="681" y="126" width="6" height="7" fill="none" stroke="#000000" pointer-events="none"/><rect x="681" y="170" width="6" height="7" fill="none" stroke="#000000" pointer-events="none"/><rect x="504" y="143" width="100" height="8" fill="#ffffff" stroke="#000000" transform="rotate(-90,553,166)" pointer-events="none"/><rect x="496" y="135" width="11" height="61" rx="2" ry="2" fill="#ffffff" stroke="#000000" transform="rotate(-90,553,166)" pointer-events="none"/><rect x="508" y="135" width="92" height="11" rx="2" ry="2" fill="#ffffff" stroke="#000000" transform="rotate(-90,553,166)" pointer-events="none"/><rect x="508" y="146" width="46" height="50" rx="2" ry="2" fill="#ffffff" stroke="#000000" transform="rotate(-90,553,166)" pointer-events="none"/><rect x="553" y="146" width="46" height="50" rx="2" ry="2" fill="#ffffff" stroke="#000000" transform="rotate(-90,553,166)" pointer-events="none"/><rect x="599" y="135" width="11" height="61" rx="2" ry="2" fill="#ffffff" stroke="#000000" transform="rotate(-90,553,166)" pointer-events="none"/><path d="M 732 75 L 732 77 C 732 79 730 81 728 81 L 676 81 C 674 81 672 79 672 77 L 672 75 Z" fill="#ffffff" stroke="#000000" stroke-miterlimit="10" pointer-events="none"/><rect x="672" y="26" width="60" height="47" fill="#ffffff" stroke="#000000" pointer-events="none"/><path d="M 678 26 C 678 24 678 23 679 22 C 680 21 681 21 682 21 L 722 21 C 723 21 724 21 725 22 C 726 23 726 24 726 26" fill="none" stroke="#000000" stroke-miterlimit="10" pointer-events="none"/><rect x="717" y="81" width="6" height="2" fill="#ffffff" stroke="#000000" pointer-events="none"/><rect x="685" y="151" width="169" height="7" fill="#ffffff" stroke="#000000" transform="rotate(90,769,151)" pointer-events="none"/><path d="M 709 151 L 726 145 C 728 144 731 144 733 144 L 805 144 C 808 144 810 144 813 145 L 829 151 Z" fill="#ffffff" stroke="#000000" stroke-miterlimit="10" transform="rotate(90,769,151)" pointer-events="none"/><path d="M 755 145 L 755 151 M 762 145 L 762 151 M 769 145 L 769 151 M 784 145 L 784 151 M 776 145 L 776 151" fill="none" stroke="#000000" stroke-miterlimit="10" transform="rotate(90,769,151)" pointer-events="none"/><rect x="328" y="454" width="160" height="30" fill="#ffffff" stroke="#000000" transform="rotate(-90,408,469)" pointer-events="none"/><path d="M 328 479 C 328 480 330 482 333 482 C 335 482 337 480 337 479 L 337 462 C 334 464 331 464 328 462 Z M 339 479 C 339 480 341 482 343 482 C 346 482 348 480 348 479 L 348 462 C 345 464 341 464 339 462 Z M 349 479 C 349 480 351 482 354 482 C 357 482 359 480 359 479 L 359 462 C 356 464 352 464 349 462 Z M 360 479 C 360 480 362 482 365 482 C 367 482 369 480 369 479 L 369 462 C 367 464 363 464 360 462 Z M 371 479 C 371 480 373 482 375 482 C 378 482 380 480 380 479 L 380 462 C 377 464 373 464 371 462 Z M 381 479 C 381 480 383 482 386 482 C 389 482 391 480 391 479 L 391 462 C 388 464 384 464 381 462 Z M 392 479 C 392 480 394 482 397 482 C 399 482 401 480 401 479 L 401 462 C 399 464 395 464 392 462 Z M 403 479 C 403 480 405 482 407 482 C 410 482 412 480 412 479 L 412 462 C 409 464 405 464 403 462 Z M 413 479 C 413 480 415 482 418 482 C 421 482 423 480 423 479 L 423 462 C 420 464 416 464 413 462 Z M 424 479 C 424 480 426 482 429 482 C 431 482 433 480 433 479 L 433 462 C 431 464 427 464 424 462 Z M 435 479 C 435 480 437 482 439 482 C 442 482 444 480 444 479 L 444 462 C 441 464 437 464 435 462 Z M 445 479 C 445 480 447 482 450 482 C 453 482 455 480 455 479 L 455 462 C 452 464 448 464 445 462 Z M 468 459 L 460 479 L 478 483 L 486 463 L 468 459 Z" fill="none" stroke="#000000" stroke-miterlimit="10" transform="rotate(-90,408,469)" pointer-events="none"/><rect x="295" y="454" width="160" height="30" fill="#ffffff" stroke="#000000" transform="rotate(90,375,469)" pointer-events="none"/><path d="M 295 479 C 295 480 297 482 300 482 C 302 482 304 480 304 479 L 304 462 C 301 464 298 464 295 462 Z M 306 479 C 306 480 308 482 310 482 C 313 482 315 480 315 479 L 315 462 C 312 464 308 464 306 462 Z M 316 479 C 316 480 318 482 321 482 C 324 482 326 480 326 479 L 326 462 C 323 464 319 464 316 462 Z M 327 479 C 327 480 329 482 332 482 C 334 482 336 480 336 479 L 336 462 C 334 464 330 464 327 462 Z M 338 479 C 338 480 340 482 342 482 C 345 482 347 480 347 479 L 347 462 C 344 464 340 464 338 462 Z M 348 479 C 348 480 350 482 353 482 C 356 482 358 480 358 479 L 358 462 C 355 464 351 464 348 462 Z M 359 479 C 359 480 361 482 364 482 C 366 482 368 480 368 479 L 368 462 C 366 464 362 464 359 462 Z M 370 479 C 370 480 372 482 374 482 C 377 482 379 480 379 479 L 379 462 C 376 464 372 464 370 462 Z M 380 479 C 380 480 382 482 385 482 C 388 482 390 480 390 479 L 390 462 C 387 464 383 464 380 462 Z M 391 479 C 391 480 393 482 396 482 C 398 482 400 480 400 479 L 400 462 C 398 464 394 464 391 462 Z M 402 479 C 402 480 404 482 406 482 C 409 482 411 480 411 479 L 411 462 C 408 464 404 464 402 462 Z M 412 479 C 412 480 414 482 417 482 C 420 482 422 480 422 479 L 422 462 C 419 464 415 464 412 462 Z M 435 459 L 427 479 L 445 483 L 453 463 L 435 459 Z" fill="none" stroke="#000000" stroke-miterlimit="10" transform="rotate(90,375,469)" pointer-events="none"/><rect x="90" y="430" width="170" height="94" fill="#ffffff" stroke="#000000" transform="rotate(90,175,477)" pointer-events="none"/><rect x="90" y="430" width="19" height="13" fill="none" stroke="#000000" transform="rotate(90,175,477)" pointer-events="none"/><rect x="90" y="511" width="19" height="13" fill="none" stroke="#000000" transform="rotate(90,175,477)" pointer-events="none"/><rect x="241" y="430" width="19" height="13" fill="none" stroke="#000000" transform="rotate(90,175,477)" pointer-events="none"/><rect x="241" y="511" width="19" height="13" fill="none" stroke="#000000" transform="rotate(90,175,477)" pointer-events="none"/><path d="M 98 419 L 101 443 C 102 447 100 450 97 452 C 87 454 77 454 67 452 C 64 450 62 447 63 443 L 66 419 C 66 417 69 415 73 414 L 91 414 C 95 415 98 417 98 419 Z" fill="#ffffff" stroke="#000000" stroke-miterlimit="10" transform="rotate(-90,82,433)" pointer-events="none"/><path d="M 98 414 C 98 414 99 415 99 416 C 98 417 97 417 97 417 C 87 415 77 415 67 417 C 66 417 66 416 65 416 C 65 415 65 414 66 414 C 76 411 87 411 98 414" fill="#ffffff" stroke="#000000" stroke-miterlimit="10" transform="rotate(-90,82,433)" pointer-events="none"/><path d="M 106 509 L 109 533 C 110 537 108 540 105 542 C 95 544 85 544 75 542 C 72 540 70 537 71 533 L 74 509 C 74 507 77 505 81 504 L 99 504 C 103 505 106 507 106 509 Z" fill="#ffffff" stroke="#000000" stroke-miterlimit="10" transform="rotate(-90,90,523)" pointer-events="none"/><path d="M 106 504 C 106 504 107 505 107 506 C 106 507 105 507 105 507 C 95 505 85 505 75 507 C 74 507 74 506 73 506 C 73 505 73 504 74 504 C 84 501 95 501 106 504" fill="#ffffff" stroke="#000000" stroke-miterlimit="10" transform="rotate(-90,90,523)" pointer-events="none"/><path d="M 276 509 L 279 533 C 280 537 278 540 275 542 C 265 544 255 544 245 542 C 242 540 240 537 241 533 L 244 509 C 244 507 247 505 251 504 L 269 504 C 273 505 276 507 276 509 Z" fill="#ffffff" stroke="#000000" stroke-miterlimit="10" transform="rotate(90,260,523)" pointer-events="none"/><path d="M 276 504 C 276 504 277 505 277 506 C 276 507 275 507 275 507 C 265 505 255 505 245 507 C 244 507 244 506 243 506 C 243 505 243 504 244 504 C 254 501 265 501 276 504" fill="#ffffff" stroke="#000000" stroke-miterlimit="10" transform="rotate(90,260,523)" pointer-events="none"/><path d="M 276 410 L 279 434 C 280 438 278 441 275 443 C 265 445 255 445 245 443 C 242 441 240 438 241 434 L 244 410 C 244 408 247 406 251 405 L 269 405 C 273 406 276 408 276 410 Z" fill="#ffffff" stroke="#000000" stroke-miterlimit="10" transform="rotate(90,260,424)" pointer-events="none"/><path d="M 276 405 C 276 405 277 406 277 407 C 276 408 275 408 275 408 C 265 406 255 406 245 408 C 244 408 244 407 243 407 C 243 406 243 405 244 405 C 254 402 265 402 276 405" fill="#ffffff" stroke="#000000" stroke-miterlimit="10" transform="rotate(90,260,424)" pointer-events="none"/><path d="M 708 425 L 711 449 C 712 453 710 456 707 458 C 697 460 687 460 677 458 C 674 456 672 453 673 449 L 676 425 C 676 423 679 421 683 420 L 701 420 C 705 421 708 423 708 425 Z" fill="#ffffff" stroke="#000000" stroke-miterlimit="10" transform="rotate(90,692,439)" pointer-events="none"/><path d="M 708 420 C 708 420 709 421 709 422 C 708 423 707 423 707 423 C 697 421 687 421 677 423 C 676 423 676 422 675 422 C 675 421 675 420 676 420 C 686 417 697 417 708 420" fill="#ffffff" stroke="#000000" stroke-miterlimit="10" transform="rotate(90,692,439)" pointer-events="none"/><path d="M 758 303 L 761 327 C 762 331 760 334 757 336 C 747 338 737 338 727 336 C 724 334 722 331 723 327 L 726 303 C 726 301 729 299 733 298 L 751 298 C 755 299 758 301 758 303 Z" fill="#ffffff" stroke="#000000" stroke-miterlimit="10" transform="rotate(90,742,317)" pointer-events="none"/><path d="M 758 298 C 758 298 759 299 759 300 C 758 301 757 301 757 301 C 747 299 737 299 727 301 C 726 301 726 300 725 300 C 725 299 725 298 726 298 C 736 295 747 295 758 298" fill="#ffffff" stroke="#000000" stroke-miterlimit="10" transform="rotate(90,742,317)" pointer-events="none"/><path d="M 708 509 L 711 533 C 712 537 710 540 707 542 C 697 544 687 544 677 542 C 674 540 672 537 673 533 L 676 509 C 676 507 679 505 683 504 L 701 504 C 705 505 708 507 708 509 Z" fill="#ffffff" stroke="#000000" stroke-miterlimit="10" transform="rotate(90,692,523)" pointer-events="none"/><path d="M 708 504 C 708 504 709 505 709 506 C 708 507 707 507 707 507 C 697 505 687 505 677 507 C 676 507 676 506 675 506 C 675 505 675 504 676 504 C 686 501 697 501 708 504" fill="#ffffff" stroke="#000000" stroke-miterlimit="10" transform="rotate(90,692,523)" pointer-events="none"/><path d="M 561 301 L 564 325 C 565 329 563 332 560 334 C 550 336 540 336 530 334 C 527 332 525 329 526 325 L 529 301 C 529 299 532 297 536 296 L 554 296 C 558 297 561 299 561 301 Z" fill="#ffffff" stroke="#000000" stroke-miterlimit="10" transform="rotate(-90,545,315)" pointer-events="none"/><path d="M 561 296 C 561 296 562 297 562 298 C 561 299 560 299 560 299 C 550 297 540 297 530 299 C 529 299 529 298 528 298 C 528 297 528 296 529 296 C 539 293 550 293 561 296" fill="#ffffff" stroke="#000000" stroke-miterlimit="10" transform="rotate(-90,545,315)" pointer-events="none"/><path d="M 548 431 L 551 455 C 552 459 550 462 547 464 C 537 466 527 466 517 464 C 514 462 512 459 513 455 L 516 431 C 516 429 519 427 523 426 L 541 426 C 545 427 548 429 548 431 Z" fill="#ffffff" stroke="#000000" stroke-miterlimit="10" transform="rotate(-90,532,445)" pointer-events="none"/><path d="M 548 426 C 548 426 549 427 549 428 C 548 429 547 429 547 429 C 537 427 527 427 517 429 C 516 429 516 428 515 428 C 515 427 515 426 516 426 C 526 423 537 423 548 426" fill="#ffffff" stroke="#000000" stroke-miterlimit="10" transform="rotate(-90,532,445)" pointer-events="none"/><path d="M 548 509 L 551 533 C 552 537 550 540 547 542 C 537 544 527 544 517 542 C 514 540 512 537 513 533 L 516 509 C 516 507 519 505 523 504 L 541 504 C 545 505 548 507 548 509 Z" fill="#ffffff" stroke="#000000" stroke-miterlimit="10" transform="rotate(-90,532,523)" pointer-events="none"/><path d="M 548 504 C 548 504 549 505 549 506 C 548 507 547 507 547 507 C 537 505 527 505 517 507 C 516 507 516 506 515 506 C 515 505 515 504 516 504 C 526 501 537 501 548 504" fill="#ffffff" stroke="#000000" stroke-miterlimit="10" transform="rotate(-90,532,523)" pointer-events="none"/><rect x="175" y="27" width="167" height="68" fill="#ffffff" stroke="#000000" pointer-events="none"/><rect x="175" y="27" width="19" height="9" fill="none" stroke="#000000" pointer-events="none"/><rect x="175" y="85" width="19" height="9" fill="none" stroke="#000000" pointer-events="none"/><rect x="323" y="27" width="19" height="9" fill="none" stroke="#000000" pointer-events="none"/><rect x="323" y="85" width="19" height="9" fill="none" stroke="#000000" pointer-events="none"/><rect x="52" y="197" width="167" height="68" fill="#ffffff" stroke="#000000" pointer-events="none"/><rect x="52" y="197" width="19" height="9" fill="none" stroke="#000000" pointer-events="none"/><rect x="52" y="255" width="19" height="9" fill="none" stroke="#000000" pointer-events="none"/><rect x="200" y="197" width="19" height="9" fill="none" stroke="#000000" pointer-events="none"/><rect x="200" y="255" width="19" height="9" fill="none" stroke="#000000" pointer-events="none"/><rect x="202" y="60" width="40" height="18" fill="#ffffff" stroke="#000000" transform="rotate(90,222,58)" pointer-events="none"/><rect x="207" y="38" width="28" height="20" fill="#ffffff" stroke="#000000" transform="rotate(90,222,58)" pointer-events="none"/><rect x="197" y="40" width="50" height="15" fill="#ffffff" stroke="#000000" transform="rotate(90,222,58)" pointer-events="none"/><rect x="204" y="65" width="20" height="10" fill="none" stroke="#000000" transform="rotate(90,222,58)" pointer-events="none"/><rect x="232" y="65" width="8" height="10" fill="none" stroke="#000000" transform="rotate(90,222,58)" pointer-events="none"/><rect x="226" y="72" width="4" height="3" fill="none" stroke="#000000" transform="rotate(90,222,58)" pointer-events="none"/><rect x="226" y="65" width="4" height="3" fill="none" stroke="#000000" transform="rotate(90,222,58)" pointer-events="none"/><path d="M 197 43 L 247 43" fill="none" stroke="#000000" stroke-miterlimit="10" transform="rotate(90,222,58)" pointer-events="none"/><rect x="200" y="45" width="44" height="8" fill="none" stroke="#000000" transform="rotate(90,222,58)" pointer-events="none"/><path d="M 158 47 L 161 71 C 162 75 160 78 157 80 C 147 82 137 82 127 80 C 124 78 122 75 123 71 L 126 47 C 126 45 129 43 133 42 L 151 42 C 155 43 158 45 158 47 Z" fill="#ffffff" stroke="#000000" stroke-miterlimit="10" transform="rotate(-90,142,61)" pointer-events="none"/><path d="M 158 42 C 158 42 159 43 159 44 C 158 45 157 45 157 45 C 147 43 137 43 127 45 C 126 45 126 44 125 44 C 125 43 125 42 126 42 C 136 39 147 39 158 42" fill="#ffffff" stroke="#000000" stroke-miterlimit="10" transform="rotate(-90,142,61)" pointer-events="none"/><ellipse cx="428" cy="68" rx="55.41666666666667" ry="55.41666666666667" fill="#ffffcc" stroke="#ffffff" pointer-events="none"/><ellipse cx="428" cy="66" rx="40" ry="40" fill="#ffff99" stroke="#ffffff" pointer-events="none"/><path d="M 428 40 C 415 40 403 52 403 65 C 403 79 415 90 428 90 C 442 90 453 79 453 65 C 453 52 442 40 428 40 Z M 428 49 C 437 49 444 56 444 65 C 444 74 437 81 428 81 C 419 81 412 74 412 65 C 412 56 419 49 428 49 Z" fill="#ffff33" stroke="#000000" stroke-miterlimit="10" pointer-events="none"/><path d="M 428 49 L 428 65 M 428 65 L 416 75 M 428 65 L 441 75" fill="none" stroke="#000000" stroke-miterlimit="10" pointer-events="none"/><ellipse cx="428" cy="65" rx="5" ry="5" fill="#ffff33" stroke="#000000" pointer-events="none"/><ellipse cx="428" cy="65" rx="12" ry="12" fill="none" stroke="#000000" pointer-events="none"/></g></svg>