<svg xmlns="http://www.w3.org/2000/svg" xmlns:xlink="http://www.w3.org/1999/xlink" width="795px" height="597px" version="1.1"><defs/><g transform="translate(0.5,0.5)"><rect x="1" y="5" width="790" height="590" fill="#ffffff" stroke="#000000" pointer-events="none"/><rect x="2" y="284" width="390" height="310" fill="#ffffff" stroke="#000000" pointer-events="none"/><rect x="392" y="284" width="400" height="310" fill="#ffffff" stroke="#000000" pointer-events="none"/><rect x="2" y="1" width="790" height="10" fill="#000000" stroke="#000000" pointer-events="none"/><rect x="93" y="584" width="658" height="10" fill="#000000" stroke="#000000" pointer-events="none"/><path d="M 1 594 L 1 494 L 101 494 L 101 504 L 11 504 L 11 594 Z" fill="#000000" stroke="#000000" stroke-miterlimit="10" transform="rotate(270,51,544)" pointer-events="none"/><path d="M 692 594 L 692 494 L 792 494 L 792 504 L 702 504 L 702 594 Z" fill="#000000" stroke="#000000" stroke-miterlimit="10" transform="rotate(180,742,544)" pointer-events="none"/><path d="M 692 101 L 692 1 L 792 1 L 792 11 L 702 11 L 702 101 Z" fill="#000000" stroke="#000000" stroke-miterlimit="10" transform="rotate(90,742,51)" pointer-events="none"/><rect x="575" y="307" width="423" height="10" fill="#000000" stroke="#000000" transform="rotate(90,787,312)" pointer-events="none"/><path d="M 2 101 L 2 1 L 102 1 L 102 11 L 12 11 L 12 101 Z" fill="#000000" stroke="#000000" stroke-miterlimit="10" pointer-events="none"/><rect x="-195" y="297" width="404" height="10" fill="#000000" stroke="#000000" transform="rotate(90,7,302)" pointer-events="none"/><rect x="282" y="283" width="80" height="5" fill="#ffffff" stroke="#000000" pointer-events="none"/><path d="M 282 288 C 282 332 317 368 362 368 L 362 288" fill="none" stroke="#000000" stroke-miterlimit="10" pointer-events="none"/><rect x="422" y="282" width="80" height="5" fill="#ffffff" stroke="#000000" pointer-events="none"/><path d="M 502 287 C 502 331 466 367 422 367 L 422 287" fill="none" stroke="#000000" stroke-miterlimit="10" pointer-events="none"/><rect x="10" y="83" width="80" height="5" fill="#ffffff" stroke="#000000" transform="rotate(-90,50,125)" pointer-events="none"/><path d="M 10 88 C 10 132 45 168 90 168 L 90 88" fill="none" stroke="#000000" stroke-miterlimit="10" transform="rotate(-90,50,125)" pointer-events="none"/><rect x="534" y="28" width="115" height="9" fill="#ffffff" stroke="#000000" pointer-events="none"/><rect x="525" y="20" width="13" height="71" rx="3" ry="3" fill="#ffffff" stroke="#000000" pointer-events="none"/><rect x="538" y="20" width="107" height="13" rx="3" ry="3" fill="#ffffff" stroke="#000000" pointer-events="none"/><rect x="538" y="33" width="53" height="58" rx="3" ry="3" fill="#ffffff" stroke="#000000" pointer-events="none"/><rect x="591" y="33" width="53" height="58" rx="3" ry="3" fill="#ffffff" stroke="#000000" pointer-events="none"/><rect x="645" y="20" width="13" height="71" rx="3" ry="3" fill="#ffffff" stroke="#000000" pointer-events="none"/><ellipse cx="481" cy="559" rx="14.892268694550062" ry="14.961861920594561" fill="#ffffff" stroke="#000000" pointer-events="none"/><ellipse cx="480" cy="572" rx="5.261934938741022" ry="11.769998044201056" fill="#ffffff" stroke="#000000" pointer-events="none"/><path d="M 480 559 C 481 560 481 562 480 564 C 479 566 476 569 474 571 C 468 576 462 578 460 576 C 459 575 460 573 461 570 C 462 568 464 566 467 563 C 473 559 479 557 480 559 Z" fill="#ffffff" stroke="#000000" stroke-miterlimit="10" pointer-events="none"/><path d="M 453 546 C 455 543 462 543 470 547 C 474 549 477 551 479 553 C 482 556 482 558 482 559 C 480 562 473 562 465 558 C 461 556 458 554 456 551 C 453 549 453 547 453 546 Z" fill="#ffffff" stroke="#000000" stroke-miterlimit="10" pointer-events="none"/><path d="M 483 556 C 486 554 492 556 498 561 C 501 563 503 566 504 569 C 505 572 505 574 504 575 C 501 578 495 576 489 571 C 486 568 484 565 483 563 C 482 560 482 558 483 556 Z" fill="#ffffff" stroke="#000000" stroke-miterlimit="10" pointer-events="none"/><path d="M 507 546 C 508 547 507 549 505 552 C 503 554 500 556 497 558 C 489 563 482 564 481 562 C 480 560 481 558 483 556 C 485 554 488 551 491 549 C 499 545 506 544 507 546 Z" fill="#ffffff" stroke="#000000" stroke-miterlimit="10" pointer-events="none"/><path d="M 475 536 C 478 535 482 541 483 548 C 484 551 484 554 484 557 C 483 560 482 561 481 562 C 478 562 475 557 473 550 C 473 546 472 543 473 540 C 473 538 474 536 475 536 Z" fill="#ffffff" stroke="#000000" stroke-miterlimit="10" pointer-events="none"/><path d="M 490 543 C 491 544 491 545 491 547 C 491 549 490 552 489 554 C 486 559 482 563 480 562 C 479 561 479 560 479 557 C 479 555 480 553 481 550 C 484 545 488 542 490 543 Z" fill="#ffffff" stroke="#000000" stroke-miterlimit="10" pointer-events="none"/><rect x="532" y="445" width="160" height="81" fill="#ffffff" stroke="#000000" transform="rotate(90,612,485)" pointer-events="none"/><rect x="532" y="445" width="18" height="11" fill="none" stroke="#000000" transform="rotate(90,612,485)" pointer-events="none"/><rect x="532" y="514" width="18" height="11" fill="none" stroke="#000000" transform="rotate(90,612,485)" pointer-events="none"/><rect x="674" y="445" width="18" height="11" fill="none" stroke="#000000" transform="rotate(90,612,485)" pointer-events="none"/><rect x="674" y="514" width="18" height="11" fill="none" stroke="#000000" transform="rotate(90,612,485)" pointer-events="none"/><rect x="582" y="288" width="120" height="50" fill="#ffffff" stroke="#000000" pointer-events="none"/><rect x="582" y="288" width="13" height="7" fill="none" stroke="#000000" pointer-events="none"/><rect x="582" y="331" width="13" height="7" fill="none" stroke="#000000" pointer-events="none"/><rect x="688" y="288" width="13" height="7" fill="none" stroke="#000000" pointer-events="none"/><rect x="688" y="331" width="13" height="7" fill="none" stroke="#000000" pointer-events="none"/><rect x="632" y="126" width="55" height="51" fill="#ffffff" stroke="#000000" pointer-events="none"/><rect x="632" y="126" width="6" height="7" fill="none" stroke="#000000" pointer-events="none"/><rect x="632" y="169" width="6" height="7" fill="none" stroke="#000000" pointer-events="none"/><rect x="681" y="126" width="6" height="7" fill="none" stroke="#000000" pointer-events="none"/><rect x="681" y="169" width="6" height="7" fill="none" stroke="#000000" pointer-events="none"/><rect x="503" y="142" width="100" height="8" fill="#ffffff" stroke="#000000" transform="rotate(-90,553,165)" pointer-events="none"/><rect x="496" y="135" width="11" height="61" rx="2" ry="2" fill="#ffffff" stroke="#000000" transform="rotate(-90,553,165)" pointer-events="none"/><rect x="507" y="135" width="92" height="11" rx="2" ry="2" fill="#ffffff" stroke="#000000" transform="rotate(-90,553,165)" pointer-events="none"/><rect x="507" y="146" width="46" height="50" rx="2" ry="2" fill="#ffffff" stroke="#000000" transform="rotate(-90,553,165)" pointer-events="none"/><rect x="553" y="146" width="46" height="50" rx="2" ry="2" fill="#ffffff" stroke="#000000" transform="rotate(-90,553,165)" pointer-events="none"/><rect x="599" y="135" width="11" height="61" rx="2" ry="2" fill="#ffffff" stroke="#000000" transform="rotate(-90,553,165)" pointer-events="none"/><path d="M 732 74 L 732 76 C 732 77 731 78 730 79 C 730 80 729 80 728 80 L 676 80 C 675 80 674 80 673 79 C 672 78 672 77 672 76 L 672 74 Z" fill="#ffffff" stroke="#000000" stroke-miterlimit="10" pointer-events="none"/><rect x="672" y="25" width="60" height="47" fill="#ffffff" stroke="#000000" pointer-events="none"/><path d="M 678 25 C 677 24 678 23 678 22 C 679 21 680 20 682 20 L 722 20 C 723 20 724 21 725 22 C 726 23 726 24 726 25" fill="none" stroke="#000000" stroke-miterlimit="10" pointer-events="none"/><rect x="717" y="80" width="6" height="2" fill="#ffffff" stroke="#000000" pointer-events="none"/><rect x="685" y="151" width="169" height="7" fill="#ffffff" stroke="#000000" transform="rotate(90,769,151)" pointer-events="none"/><path d="M 709 151 L 726 145 C 728 144 730 144 733 144 L 805 144 C 808 144 810 144 812 145 L 829 151 Z" fill="#ffffff" stroke="#000000" stroke-miterlimit="10" transform="rotate(90,769,151)" pointer-events="none"/><path d="M 754 145 L 754 151 M 762 145 L 762 151 M 769 145 L 769 151 M 783 145 L 783 151 M 776 145 L 776 151" fill="none" stroke="#000000" stroke-miterlimit="10" transform="rotate(90,769,151)" pointer-events="none"/><rect x="328" y="454" width="160" height="30" fill="#ffffff" stroke="#000000" transform="rotate(-90,408,469)" pointer-events="none"/><path d="M 328 479 C 328 480 330 481 332 481 C 335 481 337 480 337 479 L 337 462 C 334 463 330 463 328 462 Z M 338 479 C 338 480 340 481 343 481 C 346 481 348 480 348 479 L 348 462 C 345 463 341 463 338 462 Z M 349 479 C 349 480 351 481 354 481 C 356 481 358 480 358 479 L 358 462 C 355 463 352 463 349 462 Z M 360 479 C 360 480 362 481 364 481 C 367 481 369 480 369 479 L 369 462 C 366 463 362 463 360 462 Z M 370 479 C 370 480 372 481 375 481 C 378 481 380 480 380 479 L 380 462 C 377 463 373 463 370 462 Z M 381 479 C 381 480 383 481 386 481 C 388 481 390 480 390 479 L 390 462 C 388 463 384 463 381 462 Z M 392 479 C 392 480 394 481 396 481 C 399 481 401 480 401 479 L 401 462 C 398 463 394 463 392 462 Z M 402 479 C 402 480 404 481 407 481 C 410 481 412 480 412 479 L 412 462 C 409 463 405 463 402 462 Z M 413 479 C 413 480 415 481 418 481 C 420 481 422 480 422 479 L 422 462 C 420 463 416 463 413 462 Z M 424 479 C 424 480 426 481 428 481 C 431 481 433 480 433 479 L 433 462 C 430 463 426 463 424 462 Z M 434 479 C 434 480 436 481 439 481 C 442 481 444 480 444 479 L 444 462 C 441 463 437 463 434 462 Z M 445 479 C 445 480 447 481 450 481 C 452 481 454 480 454 479 L 454 462 C 452 463 448 463 445 462 Z M 467 458 L 460 479 L 478 483 L 485 462 L 467 458 Z" fill="none" stroke="#000000" stroke-miterlimit="10" transform="rotate(-90,408,469)" pointer-events="none"/><rect x="295" y="454" width="160" height="30" fill="#ffffff" stroke="#000000" transform="rotate(90,375,469)" pointer-events="none"/><path d="M 295 479 C 295 480 297 481 299 481 C 302 481 304 480 304 479 L 304 462 C 301 463 297 463 295 462 Z M 305 479 C 305 480 307 481 310 481 C 313 481 315 480 315 479 L 315 462 C 312 463 308 463 305 462 Z M 316 479 C 316 480 318 481 321 481 C 323 481 325 480 325 479 L 325 462 C 322 463 319 463 316 462 Z M 327 479 C 327 480 329 481 331 481 C 334 481 336 480 336 479 L 336 462 C 333 463 329 463 327 462 Z M 337 479 C 337 480 339 481 342 481 C 345 481 347 480 347 479 L 347 462 C 344 463 340 463 337 462 Z M 348 479 C 348 480 350 481 353 481 C 355 481 357 480 357 479 L 357 462 C 355 463 351 463 348 462 Z M 359 479 C 359 480 361 481 363 481 C 366 481 368 480 368 479 L 368 462 C 365 463 361 463 359 462 Z M 369 479 C 369 480 371 481 374 481 C 377 481 379 480 379 479 L 379 462 C 376 463 372 463 369 462 Z M 380 479 C 380 480 382 481 385 481 C 387 481 389 480 389 479 L 389 462 C 387 463 383 463 380 462 Z M 391 479 C 391 480 393 481 395 481 C 398 481 400 480 400 479 L 400 462 C 397 463 393 463 391 462 Z M 401 479 C 401 480 403 481 406 481 C 409 481 411 480 411 479 L 411 462 C 408 463 404 463 401 462 Z M 412 479 C 412 480 414 481 417 481 C 419 481 421 480 421 479 L 421 462 C 419 463 415 463 412 462 Z M 434 458 L 427 479 L 445 483 L 452 462 L 434 458 Z" fill="none" stroke="#000000" stroke-miterlimit="10" transform="rotate(90,375,469)" pointer-events="none"/><rect x="90" y="429" width="170" height="94" fill="#ffffff" stroke="#000000" transform="rotate(90,175,477)" pointer-events="none"/><rect x="90" y="429" width="19" height="13" fill="none" stroke="#000000" transform="rotate(90,175,477)" pointer-events="none"/><rect x="90" y="511" width="19" height="13" fill="none" stroke="#000000" transform="rotate(90,175,477)" pointer-events="none"/><rect x="241" y="429" width="19" height="13" fill="none" stroke="#000000" transform="rotate(90,175,477)" pointer-events="none"/><rect x="241" y="511" width="19" height="13" fill="none" stroke="#000000" transform="rotate(90,175,477)" pointer-events="none"/><path d="M 98 419 L 101 443 C 102 447 100 450 97 452 C 87 454 76 454 66 452 C 63 450 62 447 62 443 L 65 419 C 66 416 69 414 72 414 L 91 414 C 95 414 98 416 98 419 Z" fill="#ffffff" stroke="#000000" stroke-miterlimit="10" transform="rotate(-90,82,432)" pointer-events="none"/><path d="M 97 413 C 98 414 99 415 98 416 C 98 417 97 417 96 417 C 86 414 76 414 66 417 C 66 417 65 416 65 415 C 65 415 65 414 65 413 C 76 411 87 411 97 413" fill="#ffffff" stroke="#000000" stroke-miterlimit="10" transform="rotate(-90,82,432)" pointer-events="none"/><path d="M 106 509 L 109 533 C 110 537 108 540 105 542 C 95 544 84 544 74 542 C 71 540 70 537 70 533 L 73 509 C 74 506 77 504 80 504 L 99 504 C 103 504 106 506 106 509 Z" fill="#ffffff" stroke="#000000" stroke-miterlimit="10" transform="rotate(-90,90,522)" pointer-events="none"/><path d="M 105 503 C 106 504 107 505 106 506 C 106 507 105 507 104 507 C 94 504 84 504 74 507 C 74 507 73 506 73 505 C 73 505 73 504 73 503 C 84 501 95 501 105 503" fill="#ffffff" stroke="#000000" stroke-miterlimit="10" transform="rotate(-90,90,522)" pointer-events="none"/><path d="M 276 509 L 279 533 C 280 537 278 540 275 542 C 265 544 254 544 244 542 C 241 540 240 537 240 533 L 243 509 C 244 506 247 504 250 504 L 269 504 C 273 504 276 506 276 509 Z" fill="#ffffff" stroke="#000000" stroke-miterlimit="10" transform="rotate(90,260,522)" pointer-events="none"/><path d="M 275 503 C 276 504 277 505 276 506 C 276 507 275 507 274 507 C 264 504 254 504 244 507 C 244 507 243 506 243 505 C 243 505 243 504 243 503 C 254 501 265 501 275 503" fill="#ffffff" stroke="#000000" stroke-miterlimit="10" transform="rotate(90,260,522)" pointer-events="none"/><path d="M 276 410 L 279 434 C 280 438 278 441 275 443 C 265 445 254 445 244 443 C 241 441 240 438 240 434 L 243 410 C 244 407 247 405 250 405 L 269 405 C 273 405 276 407 276 410 Z" fill="#ffffff" stroke="#000000" stroke-miterlimit="10" transform="rotate(90,260,423)" pointer-events="none"/><path d="M 275 404 C 276 405 277 406 276 407 C 276 408 275 408 274 408 C 264 405 254 405 244 408 C 244 408 243 407 243 406 C 243 406 243 405 243 404 C 254 402 265 402 275 404" fill="#ffffff" stroke="#000000" stroke-miterlimit="10" transform="rotate(90,260,423)" pointer-events="none"/><path d="M 708 425 L 711 449 C 712 453 710 456 707 458 C 697 460 686 460 676 458 C 673 456 672 453 672 449 L 675 425 C 676 422 679 420 682 420 L 701 420 C 705 420 708 422 708 425 Z" fill="#ffffff" stroke="#000000" stroke-miterlimit="10" transform="rotate(90,692,438)" pointer-events="none"/><path d="M 707 419 C 708 420 709 421 708 422 C 708 423 707 423 706 423 C 696 420 686 420 676 423 C 676 423 675 422 675 421 C 675 421 675 420 675 419 C 686 417 697 417 707 419" fill="#ffffff" stroke="#000000" stroke-miterlimit="10" transform="rotate(90,692,438)" pointer-events="none"/><path d="M 758 303 L 761 327 C 762 331 760 334 757 336 C 747 338 736 338 726 336 C 723 334 722 331 722 327 L 725 303 C 726 300 729 298 732 298 L 751 298 C 755 298 758 300 758 303 Z" fill="#ffffff" stroke="#000000" stroke-miterlimit="10" transform="rotate(90,742,316)" pointer-events="none"/><path d="M 757 297 C 758 298 759 299 758 300 C 758 301 757 301 756 301 C 746 298 736 298 726 301 C 726 301 725 300 725 299 C 725 299 725 298 725 297 C 736 295 747 295 757 297" fill="#ffffff" stroke="#000000" stroke-miterlimit="10" transform="rotate(90,742,316)" pointer-events="none"/><path d="M 708 509 L 711 533 C 712 537 710 540 707 542 C 697 544 686 544 676 542 C 673 540 672 537 672 533 L 675 509 C 676 506 679 504 682 504 L 701 504 C 705 504 708 506 708 509 Z" fill="#ffffff" stroke="#000000" stroke-miterlimit="10" transform="rotate(90,692,522)" pointer-events="none"/><path d="M 707 503 C 708 504 709 505 708 506 C 708 507 707 507 706 507 C 696 504 686 504 676 507 C 676 507 675 506 675 505 C 675 505 675 504 675 503 C 686 501 697 501 707 503" fill="#ffffff" stroke="#000000" stroke-miterlimit="10" transform="rotate(90,692,522)" pointer-events="none"/><path d="M 561 301 L 564 325 C 565 329 563 332 560 334 C 550 336 539 336 529 334 C 526 332 525 329 525 325 L 528 301 C 529 298 532 296 535 296 L 554 296 C 558 296 561 298 561 301 Z" fill="#ffffff" stroke="#000000" stroke-miterlimit="10" transform="rotate(-90,545,314)" pointer-events="none"/><path d="M 560 295 C 561 296 562 297 561 298 C 561 299 560 299 559 299 C 549 296 539 296 529 299 C 529 299 528 298 528 297 C 528 297 528 296 528 295 C 539 293 550 293 560 295" fill="#ffffff" stroke="#000000" stroke-miterlimit="10" transform="rotate(-90,545,314)" pointer-events="none"/><path d="M 548 431 L 551 455 C 552 459 550 462 547 464 C 537 466 526 466 516 464 C 513 462 512 459 512 455 L 515 431 C 516 428 519 426 522 426 L 541 426 C 545 426 548 428 548 431 Z" fill="#ffffff" stroke="#000000" stroke-miterlimit="10" transform="rotate(-90,532,444)" pointer-events="none"/><path d="M 547 425 C 548 426 549 427 548 428 C 548 429 547 429 546 429 C 536 426 526 426 516 429 C 516 429 515 428 515 427 C 515 427 515 426 515 425 C 526 423 537 423 547 425" fill="#ffffff" stroke="#000000" stroke-miterlimit="10" transform="rotate(-90,532,444)" pointer-events="none"/><path d="M 548 509 L 551 533 C 552 537 550 540 547 542 C 537 544 526 544 516 542 C 513 540 512 537 512 533 L 515 509 C 516 506 519 504 522 504 L 541 504 C 545 504 548 506 548 509 Z" fill="#ffffff" stroke="#000000" stroke-miterlimit="10" transform="rotate(-90,532,522)" pointer-events="none"/><path d="M 547 503 C 548 504 549 505 548 506 C 548 507 547 507 546 507 C 536 504 526 504 516 507 C 516 507 515 506 515 505 C 515 505 515 504 515 503 C 526 501 537 501 547 503" fill="#ffffff" stroke="#000000" stroke-miterlimit="10" transform="rotate(-90,532,522)" pointer-events="none"/><rect x="175" y="26" width="167" height="68" fill="#ffffff" stroke="#000000" pointer-events="none"/><rect x="175" y="26" width="19" height="9" fill="none" stroke="#000000" pointer-events="none"/><rect x="175" y="84" width="19" height="9" fill="none" stroke="#000000" pointer-events="none"/><rect x="323" y="26" width="19" height="9" fill="none" stroke="#000000" pointer-events="none"/><rect x="323" y="84" width="19" height="9" fill="none" stroke="#000000" pointer-events="none"/><rect x="52" y="196" width="167" height="68" fill="#ffffff" stroke="#000000" pointer-events="none"/><rect x="52" y="196" width="19" height="9" fill="none" stroke="#000000" pointer-events="none"/><rect x="52" y="254" width="19" height="9" fill="none" stroke="#000000" pointer-events="none"/><rect x="200" y="196" width="19" height="9" fill="none" stroke="#000000" pointer-events="none"/><rect x="200" y="254" width="19" height="9" fill="none" stroke="#000000" pointer-events="none"/><path d="M 425 38 C 411 38 400 49 400 63 C 400 77 411 88 425 88 C 439 88 450 77 450 63 C 450 49 439 38 425 38 Z M 425 47 C 434 47 441 54 441 63 C 441 72 434 79 425 79 C 416 79 409 72 409 63 C 409 54 416 47 425 47 Z" fill="#ffffff" stroke="#000000" stroke-miterlimit="10" pointer-events="none"/><path d="M 425 47 L 425 63 M 425 63 L 413 73 M 425 63 L 438 73" fill="none" stroke="#000000" stroke-miterlimit="10" pointer-events="none"/><ellipse cx="425" cy="63" rx="5" ry="5" fill="#ffffff" stroke="#000000" pointer-events="none"/><ellipse cx="425" cy="63" rx="12" ry="12" fill="none" stroke="#000000" pointer-events="none"/><rect x="202" y="59" width="40" height="18" fill="#ffffff" stroke="#000000" transform="rotate(90,222,57)" pointer-events="none"/><rect x="207" y="37" width="28" height="20" fill="#ffffff" stroke="#000000" transform="rotate(90,222,57)" pointer-events="none"/><rect x="197" y="39" width="50" height="15" fill="#ffffff" stroke="#000000" transform="rotate(90,222,57)" pointer-events="none"/><rect x="204" y="64" width="20" height="10" fill="none" stroke="#000000" transform="rotate(90,222,57)" pointer-events="none"/><rect x="232" y="64" width="8" height="10" fill="none" stroke="#000000" transform="rotate(90,222,57)" pointer-events="none"/><rect x="226" y="71" width="4" height="3" fill="none" stroke="#000000" transform="rotate(90,222,57)" pointer-events="none"/><rect x="226" y="64" width="4" height="3" fill="none" stroke="#000000" transform="rotate(90,222,57)" pointer-events="none"/><path d="M 197 42 L 247 42" fill="none" stroke="#000000" stroke-miterlimit="10" transform="rotate(90,222,57)" pointer-events="none"/><rect x="200" y="44" width="44" height="8" fill="none" stroke="#000000" transform="rotate(90,222,57)" pointer-events="none"/><path d="M 158 47 L 161 71 C 162 75 160 78 157 80 C 147 82 136 82 126 80 C 123 78 122 75 122 71 L 125 47 C 126 44 129 42 132 42 L 151 42 C 155 42 158 44 158 47 Z" fill="#ffffff" stroke="#000000" stroke-miterlimit="10" transform="rotate(-90,142,60)" pointer-events="none"/><path d="M 157 41 C 158 42 159 43 158 44 C 158 45 157 45 156 45 C 146 42 136 42 126 45 C 126 45 125 44 125 43 C 125 43 125 42 125 41 C 136 39 147 39 157 41" fill="#ffffff" stroke="#000000" stroke-miterlimit="10" transform="rotate(-90,142,60)" pointer-events="none"/></g></svg>