<svg xmlns="http://www.w3.org/2000/svg" xmlns:xlink="http://www.w3.org/1999/xlink" version="1.1" id="Layer_1" x="0px" y="0px" width="100px" height="100px" viewBox="0 0 100 100" enable-background="new 0 0 100 100" xml:space="preserve">
<path d="M96.261,49.359l-11.923-12.01L62.438,15.294c-14.356-12.167-25.306,0-25.306,0L15.72,36.555L3.066,49.116  c-2.433,2.677-0.486,4.38-0.486,4.38c1.46,2.434,3.893,0.729,3.893,0.729l9.247-9.447l24.333-24.861  c10.22-8.517,16.79-1.217,16.79-1.217s17.044,16.79,27.496,27.101c3.988,3.935,7.049,6.958,7.786,7.695  c2.677,2.677,5.11,0.243,5.11,0.243C98.938,52.036,96.261,49.359,96.261,49.359z"/>
<path d="M56.72,22.594c0,0-6.569-7.3-16.789,1.216L15.598,48.671v38.89c0,2.152,1.742,3.894,3.894,3.894h16.546V72.962  c0-2.151,1.742-3.893,3.894-3.893h19.953c2.151,0,3.893,1.741,3.893,3.893v18.493h16.547c2.151,0,3.893-1.741,3.893-3.894V49.694  C73.765,39.383,56.72,22.594,56.72,22.594z M49.785,54.47c-5.912,0-10.706-4.794-10.706-10.707s4.794-10.707,10.706-10.707  s10.706,4.794,10.706,10.707S55.697,54.47,49.785,54.47z"/>
<polygon points="70.225,23.81 84.338,37.68 84.338,13.347 70.225,13.347 "/>
</svg>