<svg xmlns="http://www.w3.org/2000/svg" xmlns:xlink="http://www.w3.org/1999/xlink" version="1.1" id="Layer_1" x="0px" y="0px" width="100.0px" height="100px" viewBox="0 0 140 140" enable-background="new 0 0 140 140" xml:space="preserve">
<path fill="#000000" d="M93.819,25.123v12.344c12.784,7.966,21.297,22.143,21.297,38.313c0,24.918-20.199,45.117-45.116,45.117  S24.884,100.698,24.884,75.78c0-16.171,8.513-30.348,21.297-38.313V25.123c-19,8.949-32.155,28.264-32.155,50.657  c0,30.914,25.061,55.975,55.974,55.975c30.915,0,55.975-25.061,55.975-55.975C125.975,53.387,112.819,34.072,93.819,25.123z"/>
<path fill="#000000" d="M85.583,53.079c0,2.761-2.238,5-5,5H59.417c-2.762,0-5-2.239-5-5V9.245c0-2.761,2.238-5,5-5h21.166  c2.762,0,5,2.239,5,5V53.079z"/>
</svg>